# Blender 5.1.2
# www.blender.org
mtllib aileron_right.mtl
o defaultMaterial.008
v -0.031899 -0.194142 0.009398
v -0.033451 -0.194122 0.008256
v -0.033124 -0.195397 0.007904
v -0.031783 -0.195410 0.008895
v -0.031783 -0.195410 0.008895
v -0.033124 -0.195397 0.007904
v -0.032265 -0.195933 0.007059
v -0.031431 -0.195936 0.007683
v -0.005769 -0.195942 0.012601
v -0.006220 -0.195380 0.013819
v -0.006220 -0.195380 0.013819
v -0.007268 -0.194071 0.014171
v -0.005769 -0.195942 0.012601
v -0.000087 0.195043 0.011310
v -0.000555 0.194480 0.012526
v -0.006220 -0.195380 0.013819
v -0.006220 -0.195380 0.013819
v -0.000555 0.194480 0.012526
v -0.001640 0.193169 0.012870
v -0.033451 -0.194122 0.008256
v -0.034069 -0.194112 0.006025
v -0.033667 -0.195391 0.005938
v -0.033124 -0.195397 0.007904
v -0.033124 -0.195397 0.007904
v -0.033667 -0.195391 0.005938
v -0.032630 -0.195933 0.005730
v -0.032265 -0.195933 0.007059
v -0.034069 -0.194112 0.003493
v -0.033667 -0.195391 0.003580
v -0.033667 -0.195391 0.003580
v -0.032630 -0.195933 0.003788
v -0.033451 -0.194122 0.001262
v -0.033124 -0.195397 0.001614
v -0.033124 -0.195397 0.001614
v -0.032265 -0.195933 0.002459
v -0.033451 -0.194122 0.001262
v -0.031899 -0.194142 0.000121
v -0.031783 -0.195410 0.000623
v -0.033124 -0.195397 0.001614
v -0.033124 -0.195397 0.001614
v -0.031783 -0.195410 0.000623
v -0.031431 -0.195936 0.001835
v -0.032265 -0.195933 0.002459
v -0.007268 -0.194071 -0.004653
v -0.006220 -0.195380 -0.004301
v -0.006220 -0.195380 -0.004301
v -0.005769 -0.195942 -0.003083
v -0.001640 0.193169 -0.003351
v -0.000555 0.194480 -0.003007
v -0.006220 -0.195380 -0.004301
v -0.006220 -0.195380 -0.004301
v -0.000555 0.194480 -0.003007
v -0.000087 0.195043 -0.001792
v -0.005769 -0.195942 -0.003083
v -0.021005 0.193281 0.008785
v -0.000555 0.194480 0.012526
v -0.020807 0.194536 0.008293
v -0.020807 0.194536 0.008293
v -0.000555 0.194480 0.012526
v -0.000087 0.195043 0.011310
v -0.020401 0.195052 0.007101
v -0.020949 0.195053 0.006669
v -0.021842 0.194550 0.007467
v -0.021842 0.194550 0.007467
v -0.022240 0.193303 0.007796
v -0.020949 0.195053 0.006669
v -0.021224 0.195051 0.005591
v -0.022271 0.194556 0.005780
v -0.021842 0.194550 0.007467
v -0.021842 0.194550 0.007467
v -0.022271 0.194556 0.005780
v -0.022733 0.193314 0.005858
v -0.022240 0.193303 0.007796
v -0.021224 0.195051 0.003927
v -0.022271 0.194556 0.003738
v -0.022271 0.194556 0.003738
v -0.022733 0.193314 0.003661
v -0.020949 0.195053 0.002849
v -0.021842 0.194550 0.002052
v -0.021842 0.194550 0.002052
v -0.022240 0.193303 0.001722
v -0.020949 0.195053 0.002849
v -0.020401 0.195052 0.002417
v -0.020807 0.194536 0.001225
v -0.021842 0.194550 0.002052
v -0.021842 0.194550 0.002052
v -0.020807 0.194536 0.001225
v -0.021005 0.193281 0.000733
v -0.022240 0.193303 0.001722
v -0.000087 0.195043 -0.001792
v -0.000555 0.194480 -0.003007
v -0.000555 0.194480 -0.003007
v -0.016838 -0.157255 -0.007881
v -0.015490 -0.156331 -0.008287
v -0.015057 -0.158556 -0.010795
v -0.015941 -0.159080 -0.010528
v -0.016520 -0.156377 -0.003665
v -0.014937 -0.155271 -0.004143
v -0.014577 -0.160025 -0.011674
v -0.015153 -0.160281 -0.011500
v -0.015951 -0.165533 -0.010526
v -0.015063 -0.166053 -0.010794
v -0.015498 -0.168271 -0.008285
v -0.016842 -0.167351 -0.007879
v -0.015166 -0.164335 -0.011496
v -0.014583 -0.164588 -0.011672
v -0.014942 -0.169333 -0.004141
v -0.016521 -0.168228 -0.003664
v -0.016593 -0.160954 -0.010331
v -0.016359 -0.159871 -0.010402
v -0.015356 -0.160682 -0.011439
v -0.015472 -0.161337 -0.011404
v -0.017991 -0.160362 -0.007532
v -0.017578 -0.158634 -0.007657
v -0.017901 -0.160060 -0.003248
v -0.017406 -0.158024 -0.003397
v -0.016520 -0.156377 -0.003665
v -0.017994 -0.164245 -0.007532
v -0.017901 -0.164546 -0.003248
v -0.016603 -0.163658 -0.010328
v -0.015486 -0.163275 -0.011400
v -0.017581 -0.165974 -0.007656
v -0.017406 -0.166583 -0.003397
v -0.016371 -0.164741 -0.010398
v -0.016521 -0.168228 -0.003664
v -0.015373 -0.163933 -0.011434
v -0.016093 -0.168485 -0.001124
v -0.014431 -0.169639 -0.001626
v -0.014431 -0.154969 -0.001626
v -0.016093 -0.156122 -0.001124
v -0.017018 -0.166766 -0.000844
v -0.017018 -0.157840 -0.000844
v -0.017535 -0.164643 -0.000689
v -0.017535 -0.159965 -0.000689
v -0.017535 -0.164643 -0.000689
v -0.017535 -0.159965 -0.000689
v -0.017018 -0.157840 -0.000844
v -0.016093 -0.156122 -0.001124
v -0.016093 -0.156122 -0.001124
v -0.014431 -0.154969 -0.001626
v -0.014431 -0.169639 -0.001626
v -0.016093 -0.168485 -0.001124
v -0.016093 -0.168485 -0.001124
v -0.017018 -0.166766 -0.000844
v -0.005634 -0.154969 -0.004131
v -0.005634 -0.169639 -0.004131
v -0.005634 -0.169639 -0.004131
v -0.006006 -0.169333 -0.006688
v -0.006607 -0.168271 -0.010819
v -0.006938 -0.166051 -0.013097
v -0.007040 -0.164586 -0.013799
v -0.007040 -0.160025 -0.013799
v -0.006938 -0.158557 -0.013097
v -0.006607 -0.156331 -0.010819
v -0.006006 -0.155271 -0.006688
v -0.005634 -0.154969 -0.004131
v -0.006938 -0.166051 -0.013097
v -0.007040 -0.164586 -0.013799
v -0.007040 -0.160025 -0.013799
v -0.006938 -0.158557 -0.013097
v -0.005634 -0.154969 -0.004131
v -0.005634 -0.169639 -0.004131
v -0.006006 -0.169333 -0.006688
v -0.006006 -0.155271 -0.006688
v -0.006607 -0.168271 -0.010819
v -0.006607 -0.156331 -0.010819
v -0.011890 0.166205 -0.006682
v -0.010543 0.167129 -0.007088
v -0.010110 0.164904 -0.009596
v -0.010994 0.164380 -0.009329
v -0.011572 0.167082 -0.002466
v -0.009990 0.168189 -0.002944
v -0.009630 0.163435 -0.010475
v -0.010206 0.163179 -0.010301
v -0.011003 0.157927 -0.009326
v -0.010115 0.157407 -0.009595
v -0.010551 0.155188 -0.007086
v -0.011895 0.156110 -0.006680
v -0.010218 0.159125 -0.010297
v -0.009635 0.158873 -0.010473
v -0.009995 0.154127 -0.002942
v -0.011574 0.155232 -0.002465
v -0.011646 0.162506 -0.009132
v -0.011412 0.163589 -0.009203
v -0.010409 0.162777 -0.010240
v -0.010524 0.162122 -0.010205
v -0.013044 0.163097 -0.006333
v -0.012630 0.164826 -0.006458
v -0.012954 0.163400 -0.002049
v -0.012459 0.165436 -0.002198
v -0.011572 0.167082 -0.002466
v -0.013046 0.159216 -0.006333
v -0.012953 0.158913 -0.002049
v -0.011656 0.159802 -0.009129
v -0.010538 0.160185 -0.010201
v -0.012633 0.157486 -0.006457
v -0.012459 0.156877 -0.002198
v -0.011423 0.158718 -0.009199
v -0.011574 0.155232 -0.002465
v -0.010426 0.159527 -0.010235
v -0.011146 0.154976 0.000075
v -0.009483 0.153820 -0.000427
v -0.009483 0.168492 -0.000427
v -0.011146 0.167337 0.000075
v -0.012071 0.156693 0.000355
v -0.012071 0.165620 0.000355
v -0.012587 0.158817 0.000510
v -0.012587 0.163495 0.000510
v -0.012587 0.158817 0.000510
v -0.012587 0.163495 0.000510
v -0.012071 0.165620 0.000355
v -0.011146 0.167337 0.000075
v -0.011146 0.167337 0.000075
v -0.009483 0.168492 -0.000427
v -0.009483 0.153820 -0.000427
v -0.011146 0.154976 0.000075
v -0.011146 0.154976 0.000075
v -0.012071 0.156693 0.000355
v -0.000687 0.168492 -0.002932
v -0.000687 0.153820 -0.002932
v -0.000687 0.153820 -0.002932
v -0.001059 0.154127 -0.005489
v -0.001660 0.155188 -0.009620
v -0.001991 0.157408 -0.011898
v -0.002093 0.158873 -0.012600
v -0.002093 0.163435 -0.012600
v -0.001991 0.164902 -0.011898
v -0.001660 0.167129 -0.009620
v -0.001059 0.168189 -0.005489
v -0.000687 0.168492 -0.002932
v -0.001991 0.157408 -0.011898
v -0.002093 0.158873 -0.012600
v -0.002093 0.163435 -0.012600
v -0.001991 0.164902 -0.011898
v -0.000687 0.168492 -0.002932
v -0.000687 0.153820 -0.002932
v -0.001059 0.154127 -0.005489
v -0.001059 0.168189 -0.005489
v -0.001660 0.155188 -0.009620
v -0.001660 0.167129 -0.009620
vn -0.2024 -0.3797 0.9027
vn -0.2294 0.0059 0.9733
vn -0.6071 0.0171 0.7944
vn -0.5582 -0.3503 0.7521
vn -0.0098 -0.9990 0.0442
vn -0.0810 -0.9191 0.3855
vn -0.3424 -0.9108 0.2308
vn -0.1555 -0.9839 0.0886
vn -0.0090 -0.9989 0.0462
vn -0.0741 -0.9188 0.3877
vn -0.1747 -0.3803 0.9082
vn -0.1627 0.0041 0.9867
vn 0.9356 -0.0124 0.3529
vn 0.9997 -0.0140 0.0224
vn 0.9997 -0.0144 0.0220
vn 0.3101 -0.0013 0.9507
vn -0.1620 0.0077 0.9868
vn -0.9180 -0.3059 0.2526
vn -0.9659 0.0273 0.2575
vn -0.9919 0.0279 0.1238
vn -0.9449 -0.3052 0.1183
vn -0.1555 -0.9839 0.0885
vn -0.3424 -0.9108 0.2307
vn -0.4537 -0.8894 0.0557
vn -0.3222 -0.9460 0.0365
vn -0.9919 0.0279 -0.1238
vn -0.9449 -0.3052 -0.1183
vn -0.4537 -0.8894 -0.0557
vn -0.3223 -0.9459 -0.0364
vn -0.9659 0.0273 -0.2575
vn -0.9180 -0.3058 -0.2527
vn -0.3424 -0.9108 -0.2307
vn -0.1555 -0.9839 -0.0886
vn -0.5583 -0.3502 -0.7521
vn -0.6071 0.0171 -0.7944
vn -0.2294 0.0060 -0.9733
vn -0.2023 -0.3804 -0.9024
vn -0.1555 -0.9839 -0.0885
vn -0.3424 -0.9108 -0.2308
vn -0.0810 -0.9191 -0.3855
vn -0.0098 -0.9990 -0.0442
vn -0.1627 0.0041 -0.9867
vn -0.1747 -0.3803 -0.9082
vn -0.0741 -0.9188 -0.3877
vn -0.0090 -0.9989 -0.0462
vn 0.3101 -0.0013 -0.9507
vn -0.1620 0.0077 -0.9868
vn 0.9996 -0.0145 -0.0224
vn 0.9356 -0.0124 -0.3527
vn 0.9355 -0.0124 -0.3531
vn 0.9997 -0.0140 -0.0220
vn -0.2150 0.3896 0.8955
vn -0.2282 0.0087 0.9736
vn -0.1877 0.3882 0.9022
vn -0.0114 0.9986 0.0522
vn -0.0847 0.9202 0.3821
vn -0.0785 0.9197 0.3846
vn -0.0108 0.9984 0.0549
vn -0.1792 0.9788 0.0991
vn -0.3301 0.9201 0.2108
vn -0.5751 0.3758 0.7266
vn -0.6072 0.0194 0.7943
vn -0.3302 0.9201 0.2107
vn -0.1793 0.9788 0.0991
vn -0.3216 0.9463 0.0344
vn -0.4207 0.9059 0.0485
vn -0.9659 0.0292 0.2574
vn -0.9071 0.3511 0.2321
vn -0.9296 0.3523 0.1086
vn -0.9918 0.0300 0.1239
vn -0.3215 0.9463 -0.0344
vn -0.4206 0.9059 -0.0485
vn -0.9296 0.3523 -0.1086
vn -0.9918 0.0300 -0.1239
vn -0.1793 0.9788 -0.0991
vn -0.3302 0.9201 -0.2107
vn -0.9069 0.3515 -0.2325
vn -0.9659 0.0292 -0.2574
vn -0.3302 0.9201 -0.2108
vn -0.1792 0.9788 -0.0991
vn -0.0114 0.9986 -0.0521
vn -0.0847 0.9202 -0.3821
vn -0.6072 0.0194 -0.7943
vn -0.5750 0.3760 -0.7266
vn -0.2150 0.3896 -0.8955
vn -0.2282 0.0087 -0.9736
vn -0.0108 0.9984 -0.0549
vn -0.0785 0.9197 -0.3846
vn -0.1878 0.3882 -0.9022
vn -0.6551 0.4435 -0.6116
vn -0.7479 0.6165 -0.2460
vn -0.1933 0.9005 -0.3896
vn -0.2468 0.6496 -0.7191
vn -0.1508 0.9737 -0.1706
vn -0.7453 0.6663 -0.0241
vn -0.2745 0.1426 -0.9509
vn -0.4070 0.1404 -0.9026
vn -0.7480 -0.6168 -0.2451
vn -0.6546 -0.4450 -0.6110
vn -0.2463 -0.6506 -0.7184
vn -0.1930 -0.9008 -0.3891
vn -0.2745 -0.1429 -0.9509
vn -0.4066 -0.1422 -0.9024
vn -0.7456 -0.6660 -0.0237
vn -0.1508 -0.9736 -0.1713
vn -0.6559 0.0221 -0.7545
vn -0.8542 0.0450 -0.5180
vn -0.8096 0.2262 -0.5416
vn -0.5471 0.0923 -0.8319
vn -0.9292 0.3254 -0.1752
vn -0.9868 0.0697 -0.1461
vn -0.9339 0.3554 0.0395
vn -0.9948 0.0775 0.0662
vn -0.7454 0.6662 -0.0241
vn -0.9870 -0.0686 -0.1456
vn -0.9948 -0.0772 0.0663
vn -0.8548 -0.0424 -0.5173
vn -0.6565 -0.0182 -0.7541
vn -0.9295 -0.3253 -0.1739
vn -0.9340 -0.3551 0.0399
vn -0.8106 -0.2266 -0.5400
vn -0.5485 -0.0928 -0.8310
vn 0.2892 -0.0000 0.9573
vn 0.2754 -0.0000 0.9613
vn 0.2891 -0.0000 0.9573
vn 0.2887 -0.0000 0.9574
vn -0.9872 -0.0794 0.1382
vn -0.9872 0.0793 0.1383
vn -0.9254 0.3613 0.1146
vn -0.7362 0.6744 0.0566
vn -0.1380 0.9862 -0.0910
vn -0.1380 -0.9861 -0.0924
vn -0.7363 -0.6743 0.0565
vn -0.7364 -0.6742 0.0565
vn -0.9255 -0.3611 0.1145
vn 0.2738 -0.0000 0.9618
vn -0.0562 -0.9787 -0.1973
vn -0.0325 -0.9929 -0.1142
vn -0.1275 -0.8847 -0.4484
vn -0.2119 -0.6300 -0.7471
vn -0.2697 -0.1171 -0.9558
vn -0.2695 0.1170 -0.9559
vn -0.2121 0.6291 -0.7478
vn -0.1277 0.8843 -0.4490
vn -0.0560 0.9789 -0.1967
vn -0.0321 0.9931 -0.1128
vn 0.9896 -0.0000 -0.1438
vn 0.9897 -0.0000 -0.1435
vn 0.9896 -0.0000 -0.1439
vn 0.9896 -0.0000 -0.1440
vn -0.6552 0.4434 -0.6117
vn -0.2468 0.6495 -0.7192
vn -0.1508 0.9737 -0.1707
vn -0.7453 0.6662 -0.0241
vn -0.2746 0.1426 -0.9509
vn -0.4070 0.1403 -0.9026
vn -0.6547 -0.4450 -0.6110
vn -0.1929 -0.9008 -0.3891
vn -0.4067 -0.1423 -0.9024
vn -0.6558 0.0220 -0.7546
vn -0.5472 0.0924 -0.8319
vn -0.9868 0.0696 -0.1461
vn -0.9948 -0.0772 0.0664
vn -0.7456 -0.6659 -0.0237
vn 0.2753 -0.0000 0.9613
vn 0.2890 -0.0000 0.9573
vn -0.7363 0.6743 0.0566
vn -0.7362 0.6744 0.0565
vn -0.1380 0.9862 -0.0911
vn -0.1380 -0.9861 -0.0926
vn -0.7363 -0.6743 0.0564
vn -0.7364 -0.6742 0.0564
vn -0.9254 -0.3612 0.1145
vn -0.0326 -0.9929 -0.1147
vn -0.1275 -0.8847 -0.4483
vn -0.2119 -0.6300 -0.7472
vn -0.1277 0.8844 -0.4490
vn -0.0561 0.9789 -0.1967
vn -0.0323 0.9930 -0.1133
vn 0.9897 -0.0000 -0.1434
vt 0.436477 0.631429
vt 0.436346 0.632613
vt 0.434590 0.632631
vt 0.434960 0.631441
vt 0.680428 0.855286
vt 0.679296 0.854887
vt 0.680221 0.853371
vt 0.681011 0.854342
vt 0.675834 0.884322
vt 0.674696 0.883812
vt 0.465402 0.631457
vt 0.464217 0.632680
vt 0.539025 0.995144
vt 0.537888 0.995671
vt 0.536682 0.630470
vt 0.537817 0.630997
vt 0.471812 0.995604
vt 0.470584 0.994381
vt 0.347949 0.289113
vt 0.348041 0.289113
vt 0.348041 0.391564
vt 0.347994 0.394997
vt 0.347949 0.349840
vt 0.347960 0.405586
vt 0.348041 0.501592
vt 0.347994 0.498159
vt 0.347960 0.487570
vt 0.348041 0.604043
vt 0.347949 0.604043
vt 0.347949 0.543316
vt 0.545903 0.995659
vt 0.545533 0.994469
vt 0.547289 0.994487
vt 0.547420 0.995671
vt 0.685307 0.854342
vt 0.686096 0.853371
vt 0.687022 0.854887
vt 0.685890 0.855286
vt 0.575159 0.994420
vt 0.576345 0.995643
vt 0.691621 0.883812
vt 0.690483 0.884322
vt 0.581527 0.632719
vt 0.582754 0.631495
vt 0.523238 0.995671
vt 0.522100 0.995144
vt 0.523308 0.630997
vt 0.524444 0.630470
vt 0.448897 0.995657
vt 0.448673 0.994486
vt 0.685640 0.889681
vt 0.686754 0.889221
vt 0.690707 0.912137
vt 0.689572 0.912666
vt 0.685236 0.889061
vt 0.685981 0.888050
vt 0.447725 0.995671
vt 0.447275 0.994507
vt 0.374150 0.289113
vt 0.374150 0.356680
vt 0.374141 0.407068
vt 0.374107 0.394328
vt 0.374057 0.289113
vt 0.374056 0.391418
vt 0.374141 0.486087
vt 0.374107 0.498827
vt 0.374056 0.501737
vt 0.374150 0.536476
vt 0.374150 0.604043
vt 0.374057 0.604043
vt 0.680924 0.888050
vt 0.681669 0.889061
vt 0.681265 0.889681
vt 0.680152 0.889221
vt 0.558218 0.632593
vt 0.558668 0.631429
vt 0.559839 0.631442
vt 0.559615 0.632614
vt 0.677334 0.912666
vt 0.676199 0.912137
vt 0.721073 0.485524
vt 0.723274 0.488336
vt 0.720397 0.489137
vt 0.719157 0.486199
vt 0.720742 0.494610
vt 0.723292 0.494668
vt 0.718221 0.484305
vt 0.719147 0.483973
vt 0.723279 0.474442
vt 0.721081 0.477195
vt 0.719166 0.476524
vt 0.720410 0.473659
vt 0.718230 0.478416
vt 0.719167 0.478741
vt 0.723345 0.468220
vt 0.720801 0.468254
vt 0.719659 0.482610
vt 0.721634 0.483105
vt 0.721432 0.484502
vt 0.719473 0.483455
vt 0.724772 0.486101
vt 0.724819 0.483868
vt 0.730235 0.486888
vt 0.730290 0.484259
vt 0.730135 0.489013
vt 0.724820 0.478857
vt 0.730290 0.478469
vt 0.721642 0.479615
vt 0.719682 0.480108
vt 0.724774 0.476625
vt 0.730235 0.475840
vt 0.721442 0.478216
vt 0.730135 0.473716
vt 0.719500 0.479260
vt 0.747087 0.439498
vt 0.766351 0.439498
vt 0.768151 0.442725
vt 0.745287 0.442725
vt 0.749764 0.437703
vt 0.763674 0.437703
vt 0.753075 0.436700
vt 0.760363 0.436700
vt 0.733643 0.478344
vt 0.733643 0.484381
vt 0.733585 0.487124
vt 0.733481 0.489341
vt 0.723364 0.498014
vt 0.720685 0.497954
vt 0.720765 0.464910
vt 0.723444 0.464875
vt 0.733481 0.473384
vt 0.733585 0.475602
vt 0.768151 0.459755
vt 0.745287 0.459755
vt 0.706446 0.468254
vt 0.706636 0.464907
vt 0.706140 0.473659
vt 0.706139 0.476525
vt 0.706139 0.478416
vt 0.706139 0.484304
vt 0.706139 0.486198
vt 0.706140 0.489072
vt 0.706397 0.494480
vt 0.706557 0.497829
vt 0.744818 0.473659
vt 0.744818 0.483332
vt 0.743896 0.481441
vt 0.743896 0.475553
vt 0.753217 0.469416
vt 0.756569 0.469025
vt 0.756569 0.487963
vt 0.753217 0.487567
vt 0.747803 0.486198
vt 0.747803 0.470785
s 1
usemtl MQ9_Gray
f 4/1/1 1/2/2 2/3/3
f 2/3/3 3/4/4 4/1/1
f 8/5/5 5/6/6 6/7/7
f 6/7/7 7/8/8 8/5/5
f 5/6/6 8/5/5 9/9/9
f 9/9/9 10/10/10 5/6/6
f 1/2/2 4/1/1 11/11/11
f 11/11/11 12/12/12 1/2/2
f 16/13/13 13/14/14 14/15/15
f 14/15/15 15/16/13 16/13/13
f 12/12/12 17/11/16 18/17/16
f 18/17/16 19/18/17 12/12/12
f 23/19/18 20/20/19 21/21/20
f 21/21/20 22/22/21 23/19/18
f 27/23/22 24/19/23 25/22/24
f 25/22/24 26/24/25 27/23/22
f 22/22/21 21/21/20 28/25/26
f 28/25/26 29/26/27 22/22/21
f 26/24/25 25/22/24 30/26/28
f 30/26/28 31/27/29 26/24/25
f 29/26/27 28/25/26 32/28/30
f 32/28/30 33/29/31 29/26/27
f 31/27/29 30/26/28 34/29/32
f 34/29/32 35/30/33 31/27/29
f 39/31/34 36/32/35 37/33/36
f 37/33/36 38/34/37 39/31/34
f 43/35/38 40/36/39 41/37/40
f 41/37/40 42/38/41 43/35/38
f 38/34/37 37/33/36 44/39/42
f 44/39/42 45/40/43 38/34/37
f 42/38/41 41/37/40 46/41/44
f 46/41/44 47/42/45 42/38/41
f 50/40/46 44/39/42 48/43/47
f 48/43/47 49/44/46 50/40/46
f 54/45/48 51/46/49 52/47/50
f 52/47/50 53/48/51 54/45/48
f 57/49/52 55/50/53 19/18/17
f 19/18/17 56/17/54 57/49/52
f 61/51/55 58/52/56 59/53/57
f 59/53/57 60/54/58 61/51/55
f 58/52/56 61/51/55 62/55/59
f 62/55/59 63/56/60 58/52/56
f 55/50/53 57/49/52 64/57/61
f 64/57/61 65/58/62 55/50/53
f 69/59/63 66/60/64 67/61/65
f 67/61/65 68/62/66 69/59/63
f 73/63/67 70/59/68 71/62/69
f 71/62/69 72/64/70 73/63/67
f 68/62/66 67/61/65 74/65/71
f 74/65/71 75/66/72 68/62/66
f 72/64/70 71/62/69 76/66/73
f 76/66/73 77/67/74 72/64/70
f 75/66/72 74/65/71 78/68/75
f 78/68/75 79/69/76 75/66/72
f 77/67/74 76/66/73 80/69/77
f 80/69/77 81/70/78 77/67/74
f 85/71/79 82/72/80 83/73/81
f 83/73/81 84/74/82 85/71/79
f 89/75/83 86/76/84 87/77/85
f 87/77/85 88/78/86 89/75/83
f 84/74/82 83/73/81 90/79/87
f 90/79/87 91/80/88 84/74/82
f 88/78/86 87/77/85 92/44/89
f 92/44/89 48/43/47 88/78/86
f 1/2/2 12/12/12 19/18/17
f 19/18/17 55/50/53 1/2/2
f 55/50/53 65/58/62 2/3/3
f 2/3/3 1/2/2 55/50/53
f 73/63/67 72/64/70 21/21/20
f 21/21/20 20/20/19 73/63/67
f 28/25/26 21/21/20 72/64/70
f 72/64/70 77/67/74 28/25/26
f 77/67/74 81/70/78 32/28/30
f 32/28/30 28/25/26 77/67/74
f 89/75/83 88/78/86 37/33/36
f 37/33/36 36/32/35 89/75/83
f 88/78/86 48/43/47 44/39/42
f 44/39/42 37/33/36 88/78/86
f 27/23/22 26/24/25 31/27/29
f 31/27/29 35/30/33 27/23/22
f 8/5/5 7/8/8 43/35/38
f 43/35/38 42/38/41 8/5/5
f 9/9/9 8/5/5 42/38/41
f 42/38/41 47/42/45 9/9/9
f 14/15/15 13/14/14 54/45/48
f 54/45/48 53/48/51 14/15/15
f 61/51/55 60/54/58 90/79/87
f 90/79/87 83/73/81 61/51/55
f 62/55/59 61/51/55 83/73/81
f 83/73/81 82/72/80 62/55/59
f 67/61/65 66/60/64 78/68/75
f 78/68/75 74/65/71 67/61/65
f 96/81/90 93/82/91 94/83/92
f 94/83/92 95/84/93 96/81/90
f 98/85/94 94/83/92 93/82/91
f 93/82/91 97/86/95 98/85/94
f 95/84/93 99/87/96 100/88/97
f 100/88/97 96/81/90 95/84/93
f 104/89/98 101/90/99 102/91/100
f 102/91/100 103/92/101 104/89/98
f 106/93/102 102/91/100 101/90/99
f 101/90/99 105/94/103 106/93/102
f 108/95/104 104/89/98 103/92/101
f 103/92/101 107/96/105 108/95/104
f 112/97/106 109/98/107 110/99/108
f 110/99/108 111/100/109 112/97/106
f 114/101/110 110/99/108 109/98/107
f 109/98/107 113/102/111 114/101/110
f 114/101/110 93/82/91 96/81/90
f 96/81/90 110/99/108 114/101/110
f 100/88/97 111/100/109 110/99/108
f 110/99/108 96/81/90 100/88/97
f 116/103/112 114/101/110 113/102/111
f 113/102/111 115/104/113 116/103/112
f 117/105/114 93/82/91 114/101/110
f 114/101/110 116/103/112 117/105/114
f 115/104/113 113/102/111 118/106/115
f 118/106/115 119/107/116 115/104/113
f 120/108/117 118/106/115 113/102/111
f 113/102/111 109/98/107 120/108/117
f 120/108/117 109/98/107 112/97/106
f 112/97/106 121/109/118 120/108/117
f 119/107/116 118/106/115 122/110/119
f 122/110/119 123/111/120 119/107/116
f 124/112/121 122/110/119 118/106/115
f 118/106/115 120/108/117 124/112/121
f 124/112/121 101/90/99 104/89/98
f 104/89/98 122/110/119 124/112/121
f 123/111/120 122/110/119 104/89/98
f 104/89/98 125/113/104 123/111/120
f 124/112/121 120/108/117 121/109/118
f 121/109/118 126/114/122 124/112/121
f 101/90/99 124/112/121 126/114/122
f 126/114/122 105/94/103 101/90/99
f 111/100/109 126/114/122 121/109/118
f 121/109/118 112/97/106 111/100/109
f 100/88/97 105/94/103 126/114/122
f 126/114/122 111/100/109 100/88/97
f 99/87/96 106/93/102 105/94/103
f 105/94/103 100/88/97 99/87/96
f 130/115/123 127/116/123 128/117/124
f 128/117/124 129/118/124 130/115/123
f 132/119/125 131/120/125 127/116/125
s 0
f 127/116/125 130/115/125 132/119/125
s 1
f 134/121/126 133/122/126 131/120/125
f 131/120/125 132/119/125 134/121/126
f 119/107/116 135/123/127 136/124/128
f 136/124/128 115/104/113 119/107/116
f 115/104/113 136/124/128 137/125/129
f 137/125/129 116/103/112 115/104/113
f 116/103/112 137/125/129 138/126/130
f 138/126/130 117/105/114 116/103/112
f 97/86/95 139/127/130 140/128/131
f 140/128/131 98/85/94 97/86/95
f 107/96/105 141/129/132 142/130/133
f 142/130/133 108/95/104 107/96/105
f 125/113/104 143/131/134 144/132/135
f 144/132/135 123/111/120 125/113/104
f 123/111/120 144/132/135 135/123/127
f 135/123/127 119/107/116 123/111/120
f 146/133/136 145/134/136 129/118/124
f 129/118/124 128/117/124 146/133/136
f 148/135/137 147/136/138 141/129/132
f 141/129/132 107/96/105 148/135/137
f 149/137/139 148/135/137 107/96/105
f 107/96/105 103/92/101 149/137/139
f 150/138/140 149/137/139 103/92/101
f 103/92/101 102/91/100 150/138/140
f 151/139/141 150/138/140 102/91/100
f 102/91/100 106/93/102 151/139/141
f 152/140/142 151/139/141 106/93/102
f 106/93/102 99/87/96 152/140/142
f 153/141/143 152/140/142 99/87/96
f 99/87/96 95/84/93 153/141/143
f 154/142/144 153/141/143 95/84/93
f 95/84/93 94/83/92 154/142/144
f 155/143/145 154/142/144 94/83/92
f 94/83/92 98/85/94 155/143/145
f 156/144/146 155/143/145 98/85/94
f 98/85/94 140/128/131 156/144/146
s 0
f 160/145/147 157/146/147 158/147/148
f 158/147/148 159/148/148 160/145/148
f 164/149/149 161/150/149 162/151/149
f 162/151/149 163/152/149 164/149/149
f 164/149/150 163/152/150 165/153/150
f 165/153/150 166/154/150 164/149/150
f 166/154/147 165/153/147 157/146/147
f 157/146/147 160/145/147 166/154/147
s 1
f 170/81/151 167/82/91 168/83/92
f 168/83/92 169/84/152 170/81/151
f 172/85/153 168/83/92 167/82/91
f 167/82/91 171/86/154 172/85/153
f 169/84/152 173/87/155 174/88/156
f 174/88/156 170/81/151 169/84/152
f 178/89/98 175/90/157 176/91/100
f 176/91/100 177/92/158 178/89/98
f 180/93/102 176/91/100 175/90/157
f 175/90/157 179/94/159 180/93/102
f 182/95/104 178/89/98 177/92/158
f 177/92/158 181/96/105 182/95/104
f 186/97/160 183/98/107 184/99/108
f 184/99/108 185/100/161 186/97/160
f 188/101/110 184/99/108 183/98/107
f 183/98/107 187/102/162 188/101/110
f 188/101/110 167/82/91 170/81/151
f 170/81/151 184/99/108 188/101/110
f 174/88/156 185/100/161 184/99/108
f 184/99/108 170/81/151 174/88/156
f 190/103/112 188/101/110 187/102/162
f 187/102/162 189/104/113 190/103/112
f 191/105/114 167/82/91 188/101/110
f 188/101/110 190/103/112 191/105/114
f 189/104/113 187/102/162 192/106/115
f 192/106/115 193/107/163 189/104/113
f 194/108/117 192/106/115 187/102/162
f 187/102/162 183/98/107 194/108/117
f 194/108/117 183/98/107 186/97/160
f 186/97/160 195/109/118 194/108/117
f 193/107/163 192/106/115 196/110/119
f 196/110/119 197/111/120 193/107/163
f 198/112/121 196/110/119 192/106/115
f 192/106/115 194/108/117 198/112/121
f 198/112/121 175/90/157 178/89/98
f 178/89/98 196/110/119 198/112/121
f 197/111/120 196/110/119 178/89/98
f 178/89/98 199/113/164 197/111/120
f 198/112/121 194/108/117 195/109/118
f 195/109/118 200/114/122 198/112/121
f 175/90/157 198/112/121 200/114/122
f 200/114/122 179/94/159 175/90/157
f 185/100/161 200/114/122 195/109/118
f 195/109/118 186/97/160 185/100/161
f 174/88/156 179/94/159 200/114/122
f 200/114/122 185/100/161 174/88/156
f 173/87/155 180/93/102 179/94/159
f 179/94/159 174/88/156 173/87/155
f 204/115/123 201/116/123 202/117/124
f 202/117/124 203/118/165 204/115/123
s 0
f 206/119/123 205/120/123 201/116/123
f 201/116/123 204/115/123 206/119/123
f 208/121/126 207/122/126 205/120/166
f 205/120/123 206/119/123 208/121/126
s 1
f 193/107/163 209/123/127 210/124/128
f 210/124/128 189/104/113 193/107/163
f 189/104/113 210/124/128 211/125/129
f 211/125/129 190/103/112 189/104/113
f 190/103/112 211/125/129 212/126/167
f 212/126/167 191/105/114 190/103/112
f 171/86/154 213/127/168 214/128/169
f 214/128/169 172/85/153 171/86/154
f 181/96/105 215/129/170 216/130/171
f 216/130/171 182/95/104 181/96/105
f 199/113/164 217/131/172 218/132/173
f 218/132/173 197/111/120 199/113/164
f 197/111/120 218/132/173 209/123/127
f 209/123/127 193/107/163 197/111/120
f 220/133/136 219/134/136 203/118/165
f 203/118/165 202/117/124 220/133/136
f 222/135/137 221/136/174 215/129/170
f 215/129/170 181/96/105 222/135/137
f 223/137/175 222/135/137 181/96/105
f 181/96/105 177/92/158 223/137/175
f 224/138/176 223/137/175 177/92/158
f 177/92/158 176/91/100 224/138/176
f 225/139/141 224/138/176 176/91/100
f 176/91/100 180/93/102 225/139/141
f 226/140/142 225/139/141 180/93/102
f 180/93/102 173/87/155 226/140/142
f 227/141/143 226/140/142 173/87/155
f 173/87/155 169/84/152 227/141/143
f 228/142/177 227/141/143 169/84/152
f 169/84/152 168/83/92 228/142/177
f 229/143/178 228/142/177 168/83/92
f 168/83/92 172/85/153 229/143/178
f 230/144/179 229/143/178 172/85/153
f 172/85/153 214/128/169 230/144/179
s 0
f 234/145/147 231/146/147 232/147/180
f 232/147/180 233/148/180 234/145/147
f 238/149/150 235/150/150 236/151/150
f 236/151/150 237/152/150 238/149/150
f 238/149/150 237/152/150 239/153/150
f 239/153/150 240/154/150 238/149/150
f 240/154/147 239/153/147 231/146/147
f 231/146/147 234/145/147 240/154/147
