# Blender 5.1.2
# www.blender.org
mtllib aileron_left.mtl
o defaultMaterial.008
v -0.031849 0.194142 0.009398
v -0.031733 0.195410 0.008895
v -0.033074 0.195397 0.007904
v -0.033401 0.194122 0.008256
v -0.031733 0.195410 0.008895
v -0.031381 0.195936 0.007683
v -0.032215 0.195933 0.007059
v -0.033074 0.195397 0.007904
v -0.006170 0.195380 0.013819
v -0.005719 0.195942 0.012601
v -0.007218 0.194071 0.014171
v -0.006170 0.195380 0.013819
v -0.005719 0.195942 0.012601
v -0.006170 0.195380 0.013819
v -0.000505 -0.194480 0.012526
v -0.000037 -0.195043 0.011310
v -0.006170 0.195380 0.013819
v -0.001590 -0.193169 0.012870
v -0.000505 -0.194480 0.012526
v -0.033401 0.194122 0.008256
v -0.033074 0.195397 0.007904
v -0.033617 0.195391 0.005938
v -0.034019 0.194112 0.006025
v -0.033074 0.195397 0.007904
v -0.032215 0.195933 0.007059
v -0.032580 0.195933 0.005730
v -0.033617 0.195391 0.005938
v -0.033617 0.195391 0.003580
v -0.034019 0.194112 0.003493
v -0.032580 0.195933 0.003788
v -0.033617 0.195391 0.003580
v -0.033074 0.195397 0.001614
v -0.033401 0.194122 0.001262
v -0.032215 0.195933 0.002459
v -0.033074 0.195397 0.001614
v -0.033401 0.194122 0.001262
v -0.033074 0.195397 0.001614
v -0.031733 0.195410 0.000623
v -0.031849 0.194142 0.000121
v -0.033074 0.195397 0.001614
v -0.032215 0.195933 0.002459
v -0.031381 0.195936 0.001835
v -0.031733 0.195410 0.000623
v -0.006170 0.195380 -0.004301
v -0.007218 0.194071 -0.004653
v -0.005719 0.195942 -0.003083
v -0.006170 0.195380 -0.004301
v -0.006170 0.195380 -0.004301
v -0.000505 -0.194480 -0.003007
v -0.001590 -0.193169 -0.003351
v -0.006170 0.195380 -0.004301
v -0.005719 0.195942 -0.003083
v -0.000037 -0.195043 -0.001792
v -0.000505 -0.194480 -0.003007
v -0.020955 -0.193281 0.008785
v -0.020757 -0.194536 0.008293
v -0.000505 -0.194480 0.012526
v -0.020757 -0.194536 0.008293
v -0.020351 -0.195052 0.007101
v -0.000037 -0.195043 0.011310
v -0.000505 -0.194480 0.012526
v -0.021792 -0.194550 0.007467
v -0.020899 -0.195053 0.006669
v -0.022190 -0.193303 0.007796
v -0.021792 -0.194550 0.007467
v -0.020899 -0.195053 0.006669
v -0.021792 -0.194550 0.007467
v -0.022221 -0.194556 0.005780
v -0.021174 -0.195051 0.005591
v -0.021792 -0.194550 0.007467
v -0.022190 -0.193303 0.007796
v -0.022683 -0.193314 0.005858
v -0.022221 -0.194556 0.005780
v -0.022221 -0.194556 0.003738
v -0.021174 -0.195051 0.003927
v -0.022683 -0.193314 0.003661
v -0.022221 -0.194556 0.003738
v -0.021792 -0.194550 0.002052
v -0.020899 -0.195053 0.002849
v -0.022190 -0.193303 0.001722
v -0.021792 -0.194550 0.002052
v -0.020899 -0.195053 0.002849
v -0.021792 -0.194550 0.002052
v -0.020757 -0.194536 0.001225
v -0.020351 -0.195052 0.002417
v -0.021792 -0.194550 0.002052
v -0.022190 -0.193303 0.001722
v -0.020955 -0.193281 0.000733
v -0.020757 -0.194536 0.001225
v -0.000505 -0.194480 -0.003007
v -0.000037 -0.195043 -0.001792
v -0.000505 -0.194480 -0.003007
v -0.011840 -0.166205 -0.006682
v -0.010944 -0.164380 -0.009329
v -0.010060 -0.164904 -0.009596
v -0.010493 -0.167129 -0.007088
v -0.009940 -0.168189 -0.002944
v -0.011522 -0.167082 -0.002466
v -0.009580 -0.163435 -0.010475
v -0.010156 -0.163179 -0.010301
v -0.010953 -0.157927 -0.009326
v -0.011845 -0.156110 -0.006680
v -0.010501 -0.155188 -0.007086
v -0.010065 -0.157407 -0.009595
v -0.009585 -0.158873 -0.010473
v -0.010168 -0.159125 -0.010297
v -0.011524 -0.155232 -0.002465
v -0.009945 -0.154127 -0.002942
v -0.011596 -0.162506 -0.009132
v -0.010474 -0.162122 -0.010205
v -0.010359 -0.162777 -0.010240
v -0.011361 -0.163589 -0.009203
v -0.012580 -0.164826 -0.006458
v -0.012993 -0.163097 -0.006333
v -0.012409 -0.165436 -0.002198
v -0.012904 -0.163400 -0.002049
v -0.011522 -0.167082 -0.002466
v -0.012903 -0.158913 -0.002049
v -0.012996 -0.159216 -0.006333
v -0.011606 -0.159802 -0.009129
v -0.010488 -0.160185 -0.010201
v -0.012409 -0.156877 -0.002198
v -0.012583 -0.157486 -0.006457
v -0.011373 -0.158718 -0.009199
v -0.011524 -0.155232 -0.002465
v -0.010376 -0.159527 -0.010235
v -0.011096 -0.154976 0.000075
v -0.011096 -0.167337 0.000075
v -0.009433 -0.168492 -0.000427
v -0.009433 -0.153820 -0.000427
v -0.012021 -0.156693 0.000355
v -0.012021 -0.165620 0.000355
v -0.012537 -0.158817 0.000510
v -0.012537 -0.163495 0.000510
v -0.012537 -0.158817 0.000510
v -0.012537 -0.163495 0.000510
v -0.012021 -0.165620 0.000355
v -0.011096 -0.167337 0.000075
v -0.011096 -0.167337 0.000075
v -0.009433 -0.168492 -0.000427
v -0.009433 -0.153820 -0.000427
v -0.011096 -0.154976 0.000075
v -0.011096 -0.154976 0.000075
v -0.012021 -0.156693 0.000355
v -0.000637 -0.168492 -0.002932
v -0.000637 -0.153820 -0.002932
v -0.000637 -0.153820 -0.002932
v -0.001009 -0.154127 -0.005489
v -0.001610 -0.155188 -0.009620
v -0.001941 -0.157408 -0.011898
v -0.002043 -0.158873 -0.012600
v -0.002043 -0.163435 -0.012600
v -0.001941 -0.164902 -0.011898
v -0.001610 -0.167129 -0.009620
v -0.001009 -0.168189 -0.005489
v -0.000637 -0.168492 -0.002932
v -0.001941 -0.157408 -0.011898
v -0.001941 -0.164902 -0.011898
v -0.002043 -0.163435 -0.012600
v -0.002043 -0.158873 -0.012600
v -0.000637 -0.168492 -0.002932
v -0.001009 -0.168189 -0.005489
v -0.001009 -0.154127 -0.005489
v -0.000637 -0.153820 -0.002932
v -0.001610 -0.167129 -0.009620
v -0.001610 -0.155188 -0.009620
v -0.016787 0.157255 -0.007881
v -0.015891 0.159080 -0.010528
v -0.015007 0.158556 -0.010795
v -0.015440 0.156331 -0.008287
v -0.014887 0.155271 -0.004143
v -0.016470 0.156377 -0.003665
v -0.014527 0.160025 -0.011674
v -0.015103 0.160281 -0.011500
v -0.015900 0.165533 -0.010526
v -0.016792 0.167351 -0.007879
v -0.015448 0.168271 -0.008285
v -0.015013 0.166053 -0.010794
v -0.014533 0.164588 -0.011672
v -0.015116 0.164335 -0.011496
v -0.016471 0.168228 -0.003664
v -0.014892 0.169333 -0.004141
v -0.016543 0.160954 -0.010331
v -0.015422 0.161337 -0.011404
v -0.015306 0.160682 -0.011439
v -0.016309 0.159871 -0.010402
v -0.017528 0.158634 -0.007657
v -0.017941 0.160362 -0.007532
v -0.017356 0.158024 -0.003397
v -0.017851 0.160060 -0.003248
v -0.016470 0.156377 -0.003665
v -0.017851 0.164546 -0.003248
v -0.017943 0.164245 -0.007532
v -0.016553 0.163658 -0.010328
v -0.015436 0.163275 -0.011400
v -0.017356 0.166583 -0.003397
v -0.017531 0.165974 -0.007656
v -0.016321 0.164741 -0.010398
v -0.016471 0.168228 -0.003664
v -0.015323 0.163933 -0.011434
v -0.016043 0.168485 -0.001124
v -0.016043 0.156122 -0.001124
v -0.014381 0.154969 -0.001626
v -0.014381 0.169639 -0.001626
v -0.016968 0.166766 -0.000844
v -0.016968 0.157840 -0.000844
v -0.017485 0.164643 -0.000689
v -0.017485 0.159965 -0.000689
v -0.017485 0.164643 -0.000689
v -0.017485 0.159965 -0.000689
v -0.016968 0.157840 -0.000844
v -0.016043 0.156122 -0.001124
v -0.016043 0.156122 -0.001124
v -0.014381 0.154969 -0.001626
v -0.014381 0.169639 -0.001626
v -0.016043 0.168485 -0.001124
v -0.016043 0.168485 -0.001124
v -0.016968 0.166766 -0.000844
v -0.005584 0.154969 -0.004131
v -0.005584 0.169639 -0.004131
v -0.005584 0.169639 -0.004131
v -0.005956 0.169333 -0.006688
v -0.006557 0.168271 -0.010819
v -0.006888 0.166051 -0.013097
v -0.006990 0.164586 -0.013799
v -0.006990 0.160025 -0.013799
v -0.006888 0.158557 -0.013097
v -0.006557 0.156331 -0.010819
v -0.005956 0.155271 -0.006688
v -0.005584 0.154969 -0.004131
v -0.006888 0.166051 -0.013097
v -0.006888 0.158557 -0.013097
v -0.006990 0.160025 -0.013799
v -0.006990 0.164586 -0.013799
v -0.005584 0.154969 -0.004131
v -0.005956 0.155271 -0.006688
v -0.005956 0.169333 -0.006688
v -0.005584 0.169639 -0.004131
v -0.006557 0.156331 -0.010819
v -0.006557 0.168271 -0.010819
vn -0.6071 -0.0171 0.7944
vn -0.2294 -0.0059 0.9733
vn -0.2023 0.3803 0.9024
vn -0.5584 0.3505 0.7519
vn -0.3424 0.9108 0.2308
vn -0.0810 0.9192 0.3855
vn -0.0098 0.9990 0.0442
vn -0.1555 0.9839 0.0886
vn -0.0090 0.9989 0.0462
vn -0.0741 0.9188 0.3877
vn -0.1747 0.3803 0.9082
vn -0.1627 -0.0041 0.9867
vn 0.9997 0.0140 0.0220
vn 0.9996 0.0145 0.0224
vn 0.9356 0.0124 0.3529
vn 0.9355 0.0124 0.3530
vn 0.3101 0.0013 0.9507
vn -0.1620 -0.0077 0.9868
vn -0.9919 -0.0279 0.1238
vn -0.9659 -0.0273 0.2575
vn -0.9179 0.3059 0.2526
vn -0.9449 0.3052 0.1183
vn -0.4537 0.8894 0.0557
vn -0.3424 0.9108 0.2307
vn -0.1555 0.9839 0.0885
vn -0.3223 0.9459 0.0364
vn -0.9919 -0.0279 -0.1238
vn -0.9449 0.3052 -0.1183
vn -0.4537 0.8894 -0.0557
vn -0.3223 0.9459 -0.0364
vn -0.9659 -0.0273 -0.2575
vn -0.9179 0.3060 -0.2527
vn -0.3424 0.9108 -0.2307
vn -0.1555 0.9839 -0.0886
vn -0.2294 -0.0060 -0.9733
vn -0.6071 -0.0171 -0.7944
vn -0.5583 0.3502 -0.7521
vn -0.2024 0.3794 -0.9028
vn -0.0810 0.9191 -0.3855
vn -0.3423 0.9108 -0.2308
vn -0.1555 0.9839 -0.0885
vn -0.0098 0.9990 -0.0442
vn -0.1627 -0.0041 -0.9867
vn -0.1747 0.3804 -0.9082
vn -0.0741 0.9188 -0.3877
vn -0.0090 0.9989 -0.0462
vn -0.1620 -0.0077 -0.9868
vn 0.3101 0.0013 -0.9507
vn 0.9355 0.0124 -0.3531
vn 0.9356 0.0124 -0.3527
vn 0.9997 0.0140 -0.0224
vn 0.9997 0.0144 -0.0220
vn -0.2282 -0.0087 0.9736
vn -0.2150 -0.3896 0.8955
vn -0.1877 -0.3882 0.9022
vn -0.0785 -0.9198 0.3846
vn -0.0847 -0.9202 0.3821
vn -0.0114 -0.9986 0.0521
vn -0.0108 -0.9984 0.0549
vn -0.1793 -0.9788 0.0991
vn -0.3301 -0.9201 0.2108
vn -0.5752 -0.3758 0.7266
vn -0.6072 -0.0194 0.7943
vn -0.3216 -0.9463 0.0344
vn -0.3302 -0.9201 0.2107
vn -0.4206 -0.9059 0.0485
vn -0.9296 -0.3523 0.1086
vn -0.9069 -0.3514 0.2324
vn -0.9659 -0.0292 0.2574
vn -0.9918 -0.0300 0.1239
vn -0.3216 -0.9463 -0.0344
vn -0.4207 -0.9059 -0.0485
vn -0.9296 -0.3523 -0.1086
vn -0.9918 -0.0300 -0.1239
vn -0.1794 -0.9788 -0.0991
vn -0.3302 -0.9201 -0.2107
vn -0.9069 -0.3514 -0.2325
vn -0.9659 -0.0292 -0.2574
vn -0.0114 -0.9986 -0.0522
vn -0.1793 -0.9788 -0.0991
vn -0.3301 -0.9201 -0.2108
vn -0.0847 -0.9202 -0.3821
vn -0.2150 -0.3896 -0.8955
vn -0.5752 -0.3757 -0.7266
vn -0.6072 -0.0194 -0.7943
vn -0.2282 -0.0087 -0.9736
vn -0.0108 -0.9984 -0.0548
vn -0.0785 -0.9197 -0.3846
vn -0.1878 -0.3882 -0.9022
vn -0.1933 -0.9005 -0.3896
vn -0.7479 -0.6165 -0.2460
vn -0.6552 -0.4435 -0.6116
vn -0.2468 -0.6496 -0.7191
vn -0.1508 -0.9737 -0.1707
vn -0.7453 -0.6663 -0.0241
vn -0.4069 -0.1403 -0.9026
vn -0.2745 -0.1426 -0.9509
vn -0.2463 0.6506 -0.7184
vn -0.6547 0.4450 -0.6110
vn -0.7480 0.6168 -0.2451
vn -0.1930 0.9008 -0.3890
vn -0.2745 0.1428 -0.9509
vn -0.4067 0.1423 -0.9024
vn -0.7456 0.6660 -0.0237
vn -0.1508 0.9736 -0.1713
vn -0.8096 -0.2262 -0.5416
vn -0.8542 -0.0450 -0.5180
vn -0.6558 -0.0220 -0.7546
vn -0.5472 -0.0923 -0.8319
vn -0.9292 -0.3254 -0.1752
vn -0.9868 -0.0696 -0.1460
vn -0.9339 -0.3554 0.0395
vn -0.9948 -0.0775 0.0662
vn -0.7454 -0.6662 -0.0241
vn -0.9870 0.0686 -0.1456
vn -0.9948 0.0772 0.0663
vn -0.8548 0.0424 -0.5172
vn -0.6565 0.0182 -0.7541
vn -0.9295 0.3253 -0.1739
vn -0.9340 0.3551 0.0399
vn -0.8106 0.2266 -0.5400
vn -0.7456 0.6659 -0.0237
vn -0.5485 0.0928 -0.8310
vn 0.2754 -0.0000 0.9613
vn 0.2892 -0.0000 0.9573
vn 0.2753 -0.0000 0.9613
vn 0.2893 -0.0000 0.9573
vn 0.2891 -0.0000 0.9573
vn 0.2888 -0.0000 0.9574
vn -0.9872 -0.0794 0.1383
vn -0.9872 0.0794 0.1383
vn -0.9254 -0.3613 0.1146
vn -0.7363 -0.6743 0.0566
vn -0.1380 -0.9862 -0.0911
vn -0.7362 -0.6744 0.0565
vn -0.7363 0.6742 0.0564
vn -0.1381 0.9861 -0.0926
vn -0.9254 0.3612 0.1145
vn -0.7364 0.6742 0.0564
vn 0.2738 -0.0000 0.9618
vn -0.0326 0.9929 -0.1147
vn -0.0562 0.9787 -0.1973
vn -0.1275 0.8847 -0.4483
vn -0.2119 0.6300 -0.7471
vn -0.2701 0.1171 -0.9557
vn -0.2697 -0.1169 -0.9558
vn -0.2121 -0.6291 -0.7478
vn -0.1277 -0.8843 -0.4490
vn -0.0561 -0.9789 -0.1967
vn -0.0321 -0.9931 -0.1128
vn 0.9897 -0.0000 -0.1434
vn 0.9897 -0.0000 -0.1435
vn 0.9896 -0.0000 -0.1440
vn 0.9896 -0.0000 -0.1438
vn 0.9896 -0.0000 -0.1441
vn -0.6552 -0.4434 -0.6117
vn -0.4070 -0.1404 -0.9026
vn -0.1929 0.9008 -0.3891
vn -0.2745 0.1429 -0.9509
vn -0.4067 0.1422 -0.9024
vn -0.7455 0.6660 -0.0237
vn -0.6559 -0.0220 -0.7546
vn -0.5471 -0.0923 -0.8320
vn -0.7453 -0.6662 -0.0241
vn -0.8548 0.0424 -0.5173
vn 0.2887 -0.0000 0.9574
vn -0.9872 -0.0793 0.1383
vn -0.9872 0.0794 0.1382
vn -0.7362 -0.6744 0.0566
vn -0.1380 -0.9862 -0.0910
vn -0.7363 0.6743 0.0564
vn -0.1380 0.9861 -0.0925
vn -0.0326 0.9929 -0.1145
vn -0.1275 0.8847 -0.4484
vn -0.2700 0.1171 -0.9557
vn -0.0321 -0.9931 -0.1129
vn 0.9896 -0.0000 -0.1439
vn 0.9896 -0.0000 -0.1437
vt 0.434590 0.632631
vt 0.436346 0.632613
vt 0.436477 0.631429
vt 0.434960 0.631441
vt 0.680221 0.853371
vt 0.679296 0.854887
vt 0.680428 0.855286
vt 0.681011 0.854342
vt 0.675834 0.884322
vt 0.674696 0.883812
vt 0.465402 0.631457
vt 0.464217 0.632680
vt 0.536682 0.630470
vt 0.537888 0.995671
vt 0.539025 0.995144
vt 0.537817 0.630997
vt 0.471812 0.995604
vt 0.470584 0.994381
vt 0.348041 0.391564
vt 0.348041 0.289113
vt 0.347949 0.289113
vt 0.347994 0.394997
vt 0.347949 0.349840
vt 0.347960 0.405586
vt 0.348041 0.501592
vt 0.347994 0.498159
vt 0.347960 0.487570
vt 0.348041 0.604043
vt 0.347949 0.604043
vt 0.347949 0.543316
vt 0.547289 0.994487
vt 0.545533 0.994469
vt 0.545903 0.995659
vt 0.547420 0.995671
vt 0.687022 0.854887
vt 0.686096 0.853371
vt 0.685307 0.854342
vt 0.685890 0.855286
vt 0.575159 0.994420
vt 0.576345 0.995643
vt 0.691621 0.883812
vt 0.690483 0.884322
vt 0.581527 0.632719
vt 0.582754 0.631495
vt 0.523308 0.630997
vt 0.522100 0.995144
vt 0.523238 0.995671
vt 0.524444 0.630470
vt 0.448673 0.994486
vt 0.448897 0.995657
vt 0.690707 0.912137
vt 0.686754 0.889221
vt 0.685640 0.889681
vt 0.689572 0.912666
vt 0.685236 0.889061
vt 0.685981 0.888050
vt 0.447725 0.995671
vt 0.447275 0.994507
vt 0.374141 0.407068
vt 0.374150 0.356680
vt 0.374150 0.289113
vt 0.374107 0.394328
vt 0.374057 0.289113
vt 0.374056 0.391418
vt 0.374141 0.486087
vt 0.374107 0.498827
vt 0.374056 0.501737
vt 0.374150 0.536476
vt 0.374150 0.604043
vt 0.374057 0.604043
vt 0.681265 0.889681
vt 0.681669 0.889061
vt 0.680924 0.888050
vt 0.680152 0.889221
vt 0.559839 0.631442
vt 0.558668 0.631429
vt 0.558218 0.632593
vt 0.559615 0.632614
vt 0.677334 0.912666
vt 0.676199 0.912137
vt 0.720397 0.489137
vt 0.723274 0.488336
vt 0.721073 0.485524
vt 0.719157 0.486199
vt 0.720742 0.494610
vt 0.723292 0.494668
vt 0.719147 0.483973
vt 0.718221 0.484305
vt 0.719166 0.476524
vt 0.721081 0.477195
vt 0.723279 0.474442
vt 0.720410 0.473659
vt 0.718230 0.478416
vt 0.719167 0.478741
vt 0.723345 0.468220
vt 0.720801 0.468254
vt 0.721432 0.484502
vt 0.721634 0.483105
vt 0.719659 0.482610
vt 0.719473 0.483455
vt 0.724772 0.486101
vt 0.724819 0.483868
vt 0.730235 0.486888
vt 0.730290 0.484259
vt 0.730135 0.489013
vt 0.724820 0.478857
vt 0.730290 0.478469
vt 0.721642 0.479615
vt 0.719682 0.480108
vt 0.724774 0.476625
vt 0.730235 0.475840
vt 0.721442 0.478216
vt 0.730135 0.473716
vt 0.719500 0.479260
vt 0.768151 0.442725
vt 0.766351 0.439498
vt 0.747087 0.439498
vt 0.745287 0.442725
vt 0.763674 0.437703
vt 0.749764 0.437703
vt 0.760363 0.436700
vt 0.753075 0.436700
vt 0.733643 0.484381
vt 0.733643 0.478344
vt 0.733585 0.487124
vt 0.733481 0.489341
vt 0.720685 0.497954
vt 0.723364 0.498014
vt 0.723444 0.464875
vt 0.720765 0.464910
vt 0.733585 0.475602
vt 0.733481 0.473384
vt 0.745287 0.459755
vt 0.768151 0.459755
vt 0.706636 0.464907
vt 0.706446 0.468254
vt 0.706140 0.473659
vt 0.706139 0.476525
vt 0.706139 0.478416
vt 0.706139 0.484304
vt 0.706139 0.486198
vt 0.706140 0.489072
vt 0.706397 0.494480
vt 0.706557 0.497829
vt 0.743896 0.481441
vt 0.744818 0.483332
vt 0.744818 0.473659
vt 0.743896 0.475553
vt 0.756569 0.487963
vt 0.756569 0.469025
vt 0.753217 0.469416
vt 0.753217 0.487567
vt 0.747803 0.486198
vt 0.747803 0.470785
s 1
usemtl MQ9_Gray
f 4/1/1 1/2/2 2/3/3
f 2/3/3 3/4/4 4/1/1
f 8/5/5 5/6/6 6/7/7
f 6/7/7 7/8/8 8/5/5
f 10/9/9 6/7/7 5/6/6
f 5/6/6 9/10/10 10/9/9
f 12/11/11 2/3/3 1/2/2
f 1/2/2 11/12/12 12/11/11
f 16/13/13 13/14/14 14/15/15
f 14/15/15 15/16/16 16/13/13
f 19/17/17 17/11/17 11/12/12
f 11/12/12 18/18/18 19/17/17
f 23/19/19 20/20/20 21/21/21
f 21/21/21 22/22/22 23/19/19
f 27/22/23 24/21/24 25/23/25
f 25/23/25 26/24/26 27/22/23
f 29/25/27 23/19/19 22/22/22
f 22/22/22 28/26/28 29/25/27
f 31/26/29 27/22/23 26/24/26
f 26/24/26 30/27/30 31/26/29
f 33/28/31 29/25/27 28/26/28
f 28/26/28 32/29/32 33/28/31
f 35/29/33 31/26/29 30/27/30
f 30/27/30 34/30/34 35/29/33
f 39/31/35 36/32/36 37/33/37
f 37/33/37 38/34/38 39/31/35
f 43/35/39 40/36/40 41/37/41
f 41/37/41 42/38/42 43/35/39
f 45/39/43 39/31/35 38/34/38
f 38/34/38 44/40/44 45/39/43
f 47/41/45 43/35/39 42/38/42
f 42/38/42 46/42/46 47/41/45
f 50/43/47 45/39/43 48/40/48
f 48/40/48 49/44/48 50/43/47
f 54/45/49 51/46/50 52/47/51
f 52/47/51 53/48/52 54/45/49
f 18/18/18 55/49/53 56/50/54
f 56/50/54 57/17/55 18/18/18
f 61/51/56 58/52/57 59/53/58
f 59/53/58 60/54/59 61/51/56
f 63/55/60 59/53/58 58/52/57
f 58/52/57 62/56/61 63/55/60
f 65/57/62 56/50/54 55/49/53
f 55/49/53 64/58/63 65/57/62
f 69/59/64 66/60/60 67/61/65
f 67/61/65 68/62/66 69/59/64
f 73/62/67 70/61/68 71/63/69
f 71/63/69 72/64/70 73/62/67
f 75/65/71 69/59/64 68/62/66
f 68/62/66 74/66/72 75/65/71
f 77/66/73 73/62/67 72/64/70
f 72/64/70 76/67/74 77/66/73
f 79/68/75 75/65/71 74/66/72
f 74/66/72 78/69/76 79/68/75
f 81/69/77 77/66/73 76/67/74
f 76/67/74 80/70/78 81/69/77
f 85/71/79 82/72/80 83/73/81
f 83/73/81 84/74/82 85/71/79
f 89/75/83 86/76/84 87/77/85
f 87/77/85 88/78/86 89/75/83
f 91/79/87 85/71/79 84/74/82
f 84/74/82 90/80/88 91/79/87
f 92/44/89 89/75/83 88/78/86
f 88/78/86 50/43/47 92/44/89
f 18/18/18 11/12/12 1/2/2
f 1/2/2 55/49/53 18/18/18
f 4/1/1 64/58/63 55/49/53
f 55/49/53 1/2/2 4/1/1
f 23/19/19 72/64/70 71/63/69
f 71/63/69 20/20/20 23/19/19
f 72/64/70 23/19/19 29/25/27
f 29/25/27 76/67/74 72/64/70
f 33/28/31 80/70/78 76/67/74
f 76/67/74 29/25/27 33/28/31
f 39/31/35 88/78/86 87/77/85
f 87/77/85 36/32/36 39/31/35
f 45/39/43 50/43/47 88/78/86
f 88/78/86 39/31/35 45/39/43
f 30/27/30 26/24/26 25/23/25
f 25/23/25 34/30/34 30/27/30
f 41/37/41 7/8/8 6/7/7
f 6/7/7 42/38/42 41/37/41
f 42/38/42 6/7/7 10/9/9
f 10/9/9 46/42/46 42/38/42
f 52/47/51 13/14/14 16/13/13
f 16/13/13 53/48/52 52/47/51
f 91/79/87 60/54/59 59/53/58
f 59/53/58 85/71/79 91/79/87
f 85/71/79 59/53/58 63/55/60
f 63/55/60 82/72/80 85/71/79
f 79/68/75 66/60/60 69/59/64
f 69/59/64 75/65/71 79/68/75
f 96/81/90 93/82/91 94/83/92
f 94/83/92 95/84/93 96/81/90
f 93/82/91 96/81/90 97/85/94
f 97/85/94 98/86/95 93/82/91
f 100/87/96 99/88/97 95/84/93
f 95/84/93 94/83/92 100/87/96
f 104/89/98 101/90/99 102/91/100
f 102/91/100 103/92/101 104/89/98
f 101/90/99 104/89/98 105/93/102
f 105/93/102 106/94/103 101/90/99
f 103/92/101 102/91/100 107/95/104
f 107/95/104 108/96/105 103/92/101
f 112/97/106 109/98/107 110/99/108
f 110/99/108 111/100/109 112/97/106
f 109/98/107 112/97/106 113/101/110
f 113/101/110 114/102/111 109/98/107
f 94/83/92 93/82/91 113/101/110
f 113/101/110 112/97/106 94/83/92
f 112/97/106 111/100/109 100/87/96
f 100/87/96 94/83/92 112/97/106
f 114/102/111 113/101/110 115/103/112
f 115/103/112 116/104/113 114/102/111
f 113/101/110 93/82/91 117/105/114
f 117/105/114 115/103/112 113/101/110
f 119/106/115 114/102/111 116/104/113
f 116/104/113 118/107/116 119/106/115
f 114/102/111 119/106/115 120/108/117
f 120/108/117 109/98/107 114/102/111
f 110/99/108 109/98/107 120/108/117
f 120/108/117 121/109/118 110/99/108
f 123/110/119 119/106/115 118/107/116
f 118/107/116 122/111/120 123/110/119
f 119/106/115 123/110/119 124/112/121
f 124/112/121 120/108/117 119/106/115
f 102/91/100 101/90/99 124/112/121
f 124/112/121 123/110/119 102/91/100
f 102/91/100 123/110/119 122/111/120
f 122/111/120 125/113/122 102/91/100
f 121/109/118 120/108/117 124/112/121
f 124/112/121 126/114/123 121/109/118
f 126/114/123 124/112/121 101/90/99
f 101/90/99 106/94/103 126/114/123
f 121/109/118 126/114/123 111/100/109
f 111/100/109 110/99/108 121/109/118
f 126/114/123 106/94/103 100/87/96
f 100/87/96 111/100/109 126/114/123
f 106/94/103 105/93/102 99/88/97
f 99/88/97 100/87/96 106/94/103
f 130/115/124 127/116/125 128/117/125
f 128/117/125 129/118/126 130/115/124
s 0
f 127/116/127 131/119/127 132/120/127
f 132/120/125 128/117/125 127/116/125
s 1
f 131/119/128 133/121/129 134/122/129
f 134/122/129 132/120/125 131/119/128
f 136/123/130 135/124/131 118/107/116
f 118/107/116 116/104/113 136/123/130
f 137/125/132 136/123/130 116/104/113
f 116/104/113 115/103/112 137/125/132
f 138/126/133 137/125/132 115/103/112
f 115/103/112 117/105/114 138/126/133
f 140/127/134 139/128/135 98/86/95
f 98/86/95 97/85/94 140/127/134
f 142/129/136 141/130/137 108/96/105
f 108/96/105 107/95/104 142/129/136
f 144/131/138 143/132/139 125/113/122
f 125/113/122 122/111/120 144/131/138
f 135/124/131 144/131/138 122/111/120
f 122/111/120 118/107/116 135/124/131
f 129/118/126 145/133/140 146/134/140
f 146/134/140 130/115/124 129/118/126
f 141/130/137 147/135/141 148/136/142
f 148/136/142 108/96/105 141/130/137
f 108/96/105 148/136/142 149/137/143
f 149/137/143 103/92/101 108/96/105
f 103/92/101 149/137/143 150/138/144
f 150/138/144 104/89/98 103/92/101
f 104/89/98 150/138/144 151/139/145
f 151/139/145 105/93/102 104/89/98
f 105/93/102 151/139/145 152/140/146
f 152/140/146 99/88/97 105/93/102
f 99/88/97 152/140/146 153/141/147
f 153/141/147 95/84/93 99/88/97
f 95/84/93 153/141/147 154/142/148
f 154/142/148 96/81/90 95/84/93
f 96/81/90 154/142/148 155/143/149
f 155/143/149 97/85/94 96/81/90
f 97/85/94 155/143/149 156/144/150
f 156/144/150 140/127/134 97/85/94
s 0
f 160/145/151 157/146/151 158/147/151
f 158/147/152 159/148/152 160/145/152
f 164/149/153 161/150/153 162/151/153
f 162/151/153 163/152/153 164/149/153
f 166/153/153 163/152/153 162/151/153
f 162/151/153 165/154/153 166/153/153
f 157/146/154 166/153/155 165/154/155
f 165/154/155 158/147/154 157/146/154
s 1
f 170/81/90 167/82/91 168/83/156
f 168/83/156 169/84/93 170/81/90
f 167/82/91 170/81/90 171/85/94
f 171/85/94 172/86/95 167/82/91
f 174/87/157 173/88/97 169/84/93
f 169/84/93 168/83/156 174/87/157
f 178/89/98 175/90/99 176/91/100
f 176/91/100 177/92/158 178/89/98
f 175/90/99 178/89/98 179/93/159
f 179/93/159 180/94/160 175/90/99
f 177/92/158 176/91/100 181/95/161
f 181/95/161 182/96/105 177/92/158
f 186/97/106 183/98/107 184/99/162
f 184/99/162 185/100/163 186/97/106
f 183/98/107 186/97/106 187/101/110
f 187/101/110 188/102/111 183/98/107
f 168/83/156 167/82/91 187/101/110
f 187/101/110 186/97/106 168/83/156
f 186/97/106 185/100/163 174/87/157
f 174/87/157 168/83/156 186/97/106
f 188/102/111 187/101/110 189/103/112
f 189/103/112 190/104/113 188/102/111
f 187/101/110 167/82/91 191/105/164
f 191/105/164 189/103/112 187/101/110
f 193/106/115 188/102/111 190/104/113
f 190/104/113 192/107/116 193/106/115
f 188/102/111 193/106/115 194/108/165
f 194/108/165 183/98/107 188/102/111
f 184/99/162 183/98/107 194/108/165
f 194/108/165 195/109/118 184/99/162
f 197/110/119 193/106/115 192/107/116
f 192/107/116 196/111/120 197/110/119
f 193/106/115 197/110/119 198/112/121
f 198/112/121 194/108/165 193/106/115
f 176/91/100 175/90/99 198/112/121
f 198/112/121 197/110/119 176/91/100
f 176/91/100 197/110/119 196/111/120
f 196/111/120 199/113/104 176/91/100
f 195/109/118 194/108/165 198/112/121
f 198/112/121 200/114/123 195/109/118
f 200/114/123 198/112/121 175/90/99
f 175/90/99 180/94/160 200/114/123
f 195/109/118 200/114/123 185/100/163
f 185/100/163 184/99/162 195/109/118
f 200/114/123 180/94/160 174/87/157
f 174/87/157 185/100/163 200/114/123
f 180/94/160 179/93/159 173/88/97
f 173/88/97 174/87/157 180/94/160
f 204/115/124 201/116/125 202/117/125
f 202/117/125 203/118/124 204/115/124
s 0
f 201/116/128 205/119/128 206/120/128
f 206/120/128 202/117/128 201/116/128
f 205/119/125 207/121/166 208/122/166
f 208/122/166 206/120/125 205/119/125
s 1
f 210/123/167 209/124/168 192/107/116
f 192/107/116 190/104/113 210/123/167
f 211/125/132 210/123/167 190/104/113
f 190/104/113 189/103/112 211/125/132
f 212/126/169 211/125/132 189/103/112
f 189/103/112 191/105/164 212/126/169
f 214/127/170 213/128/169 172/86/95
f 172/86/95 171/85/94 214/127/170
f 216/129/171 215/130/172 182/96/105
f 182/96/105 181/95/161 216/129/171
f 218/131/138 217/132/139 199/113/104
f 199/113/104 196/111/120 218/131/138
f 209/124/168 218/131/138 196/111/120
f 196/111/120 192/107/116 209/124/168
f 203/118/124 219/133/140 220/134/140
f 220/134/140 204/115/124 203/118/124
f 215/130/172 221/135/173 222/136/142
f 222/136/142 182/96/105 215/130/172
f 182/96/105 222/136/142 223/137/174
f 223/137/174 177/92/158 182/96/105
f 177/92/158 223/137/174 224/138/144
f 224/138/144 178/89/98 177/92/158
f 178/89/98 224/138/144 225/139/175
f 225/139/175 179/93/159 178/89/98
f 179/93/159 225/139/175 226/140/146
f 226/140/146 173/88/97 179/93/159
f 173/88/97 226/140/146 227/141/147
f 227/141/147 169/84/93 173/88/97
f 169/84/93 227/141/147 228/142/148
f 228/142/148 170/81/90 169/84/93
f 170/81/90 228/142/148 229/143/149
f 229/143/149 171/85/94 170/81/90
f 171/85/94 229/143/149 230/144/176
f 230/144/176 214/127/170 171/85/94
s 0
f 234/145/152 231/146/154 232/147/154
f 232/147/152 233/148/152 234/145/152
f 238/149/177 235/150/177 236/151/177
f 236/151/177 237/152/177 238/149/177
f 240/153/153 237/152/153 236/151/153
f 236/151/153 239/154/153 240/153/153
f 231/146/178 240/153/178 239/154/178
f 239/154/178 232/147/178 231/146/178
