# Blender 5.1.2
# www.blender.org
mtllib gear_struts.mtl
o Gear_Nose_Strut.001
v 0.240729 0.022964 -0.167143
v 0.240729 0.022964 -0.029087
v 0.243748 0.022363 -0.167143
v 0.243748 0.022363 -0.029087
v 0.246307 0.020653 -0.167143
v 0.246307 0.020653 -0.029087
v 0.248017 0.018094 -0.167143
v 0.248017 0.018094 -0.029087
v 0.248618 0.015075 -0.167143
v 0.248618 0.015075 -0.029087
v 0.248017 0.012056 -0.167143
v 0.248017 0.012056 -0.029087
v 0.246307 0.009496 -0.167143
v 0.246307 0.009496 -0.029087
v 0.243748 0.007786 -0.167143
v 0.243748 0.007786 -0.029087
v 0.240729 0.007186 -0.167143
v 0.240729 0.007186 -0.029087
v 0.237710 0.007786 -0.167143
v 0.237710 0.007786 -0.029087
v 0.235151 0.009496 -0.167143
v 0.235151 0.009496 -0.029087
v 0.233440 0.012056 -0.167143
v 0.233440 0.012056 -0.029087
v 0.232840 0.015075 -0.167143
v 0.232840 0.015075 -0.029087
v 0.233440 0.018094 -0.167143
v 0.233440 0.018094 -0.029087
v 0.235151 0.020653 -0.167143
v 0.235151 0.020653 -0.029087
v 0.237710 0.022363 -0.167143
v 0.237710 0.022363 -0.029087
v -0.093419 0.197187 -0.176805
v -0.090357 0.196578 -0.176805
v -0.093419 0.197187 -0.026805
v -0.096480 0.196578 -0.176805
v -0.099075 0.194844 -0.176805
v -0.096480 0.196578 -0.026805
v -0.099075 0.194844 -0.026805
v -0.100810 0.192248 -0.026805
v -0.101419 0.189187 -0.026805
v -0.100810 0.192248 -0.176805
v -0.101419 0.189187 -0.176805
v -0.100810 0.186125 -0.176805
v -0.099075 0.183530 -0.176805
v -0.100810 0.186125 -0.026805
v -0.099075 0.183530 -0.026805
v -0.096480 0.181796 -0.026805
v -0.093419 0.181187 -0.026805
v -0.096480 0.181796 -0.176805
v -0.093419 0.181187 -0.176805
v -0.090357 0.181796 -0.176805
v -0.087762 0.183530 -0.176805
v -0.090357 0.181796 -0.026805
v -0.087762 0.183530 -0.026805
v -0.086028 0.186125 -0.026805
v -0.085419 0.189187 -0.026805
v -0.086028 0.186125 -0.176805
v -0.085419 0.189187 -0.176805
v -0.086028 0.192248 -0.176805
v -0.087762 0.194844 -0.176805
v -0.086028 0.192248 -0.026805
v -0.087762 0.194844 -0.026805
v -0.090357 0.196578 -0.026805
v -0.082935 -0.186007 -0.175586
v -0.079873 -0.186616 -0.175586
v -0.082935 -0.186007 -0.025586
v -0.085996 -0.186616 -0.175586
v -0.088592 -0.188351 -0.175586
v -0.085996 -0.186616 -0.025586
v -0.088592 -0.188351 -0.025586
v -0.090326 -0.190946 -0.025586
v -0.090935 -0.194007 -0.025586
v -0.090326 -0.190946 -0.175586
v -0.090935 -0.194007 -0.175586
v -0.090326 -0.197069 -0.175586
v -0.088592 -0.199664 -0.175586
v -0.090326 -0.197069 -0.025586
v -0.088592 -0.199664 -0.025586
v -0.085996 -0.201398 -0.025586
v -0.082935 -0.202007 -0.025586
v -0.085996 -0.201398 -0.175586
v -0.082935 -0.202007 -0.175586
v -0.079873 -0.201398 -0.175586
v -0.077278 -0.199664 -0.175586
v -0.079873 -0.201398 -0.025586
v -0.077278 -0.199664 -0.025586
v -0.075544 -0.197069 -0.025586
v -0.074935 -0.194007 -0.025586
v -0.075544 -0.197069 -0.175586
v -0.074935 -0.194007 -0.175586
v -0.075544 -0.190946 -0.175586
v -0.077278 -0.188351 -0.175586
v -0.075544 -0.190946 -0.025586
v -0.077278 -0.188351 -0.025586
v -0.079873 -0.186616 -0.025586
vn 0.1951 0.9808 -0.0000
vn 0.5556 0.8315 -0.0000
vn 0.8315 0.5556 -0.0000
vn 0.9808 0.1951 -0.0000
vn 0.9808 -0.1951 -0.0000
vn 0.8315 -0.5556 -0.0000
vn 0.5556 -0.8315 -0.0000
vn 0.1951 -0.9808 -0.0000
vn -0.1951 -0.9808 -0.0000
vn -0.5556 -0.8315 -0.0000
vn -0.8315 -0.5556 -0.0000
vn -0.9808 -0.1951 -0.0000
vn -0.9808 0.1951 -0.0000
vn -0.8315 0.5556 -0.0000
vn -0.0000 -0.0000 1.0000
vn -0.5556 0.8315 -0.0000
vn -0.1951 0.9808 -0.0000
vn -0.0000 -0.0000 -1.0000
vt 1.000000 1.000000
vt 0.937500 0.500000
vt 1.000000 0.500000
vt 0.937500 1.000000
vt 0.875000 0.500000
vt 0.875000 1.000000
vt 0.812500 0.500000
vt 0.812500 1.000000
vt 0.750000 0.500000
vt 0.750000 1.000000
vt 0.687500 0.500000
vt 0.687500 1.000000
vt 0.625000 0.500000
vt 0.625000 1.000000
vt 0.562500 0.500000
vt 0.562500 1.000000
vt 0.500000 0.500000
vt 0.500000 1.000000
vt 0.437500 0.500000
vt 0.437500 1.000000
vt 0.375000 0.500000
vt 0.375000 1.000000
vt 0.312500 0.500000
vt 0.312500 1.000000
vt 0.250000 0.500000
vt 0.250000 1.000000
vt 0.187500 0.500000
vt 0.187500 1.000000
vt 0.125000 0.500000
vt 0.080294 0.080294
vt 0.419706 0.080294
vt 0.419706 0.419706
vt 0.125000 1.000000
vt 0.062500 0.500000
vt 0.062500 1.000000
vt 0.000000 0.500000
vt 0.841844 0.028269
vt 0.528269 0.158156
vt 0.658156 0.471731
vt 0.341844 0.471731
vt 0.250000 0.490000
vt 0.158156 0.471731
vt 0.080294 0.419706
vt 0.028269 0.341844
vt 0.010000 0.250000
vt 0.028269 0.158156
vt 0.158156 0.028269
vt 0.250000 0.010000
vt 0.341844 0.028269
vt 0.471731 0.158156
vt 0.490000 0.250000
vt 0.471731 0.341844
vt 0.000000 1.000000
vt 0.750000 0.490000
vt 0.841844 0.471731
vt 0.919706 0.419706
vt 0.971731 0.341844
vt 0.990000 0.250000
vt 0.971731 0.158156
vt 0.919706 0.080294
vt 0.750000 0.010000
vt 0.658156 0.028269
vt 0.580294 0.080294
vt 0.510000 0.250000
vt 0.528269 0.341844
vt 0.580294 0.419706
s 0
usemtl MQ9_Dark
f 2/1/1 3/2/1 1/3/1
f 4/4/2 5/5/2 3/2/2
f 6/6/3 7/7/3 5/5/3
f 8/8/4 9/9/4 7/7/4
f 10/10/5 11/11/5 9/9/5
f 12/12/6 13/13/6 11/11/6
f 14/14/7 15/15/7 13/13/7
f 16/16/8 17/17/8 15/15/8
f 18/18/9 19/19/9 17/17/9
f 20/20/10 21/21/10 19/19/10
f 22/22/11 23/23/11 21/21/11
f 24/24/12 25/25/12 23/23/12
f 26/26/13 27/27/13 25/25/13
f 28/28/14 29/29/14 27/27/14
f 22/30/15 14/31/15 6/32/15
f 30/33/16 31/34/16 29/29/16
f 32/35/17 1/36/17 31/34/17
f 15/37/18 23/38/18 31/39/18
f 52/37/18 44/38/18 36/39/18
f 35/1/1 34/2/1 33/3/1
f 38/35/17 33/36/17 36/34/17
f 39/33/16 36/34/16 37/29/16
f 47/30/15 55/31/15 63/32/15
f 40/28/14 37/29/14 42/27/14
f 41/26/13 42/27/13 43/25/13
f 46/24/12 43/25/12 44/23/12
f 47/22/11 44/23/11 45/21/11
f 48/20/10 45/21/10 50/19/10
f 49/18/9 50/19/9 51/17/9
f 54/16/8 51/17/8 52/15/8
f 55/14/7 52/15/7 53/13/7
f 56/12/6 53/13/6 58/11/6
f 57/10/5 58/11/5 59/9/5
f 62/8/4 59/9/4 60/7/4
f 63/6/3 60/7/3 61/5/3
f 64/4/2 61/5/2 34/2/2
f 84/37/18 76/38/18 68/39/18
f 67/1/1 66/2/1 65/3/1
f 70/35/17 65/36/17 68/34/17
f 71/33/16 68/34/16 69/29/16
f 79/30/15 87/31/15 95/32/15
f 72/28/14 69/29/14 74/27/14
f 73/26/13 74/27/13 75/25/13
f 78/24/12 75/25/12 76/23/12
f 79/22/11 76/23/11 77/21/11
f 80/20/10 77/21/10 82/19/10
f 81/18/9 82/19/9 83/17/9
f 86/16/8 83/17/8 84/15/8
f 87/14/7 84/15/7 85/13/7
f 88/12/6 85/13/6 90/11/6
f 89/10/5 90/11/5 91/9/5
f 94/8/4 91/9/4 92/7/4
f 95/6/3 92/7/3 93/5/3
f 96/4/2 93/5/2 66/2/2
f 2/1/1 4/4/1 3/2/1
f 4/4/2 6/6/2 5/5/2
f 6/6/3 8/8/3 7/7/3
f 8/8/4 10/10/4 9/9/4
f 10/10/5 12/12/5 11/11/5
f 12/12/6 14/14/6 13/13/6
f 14/14/7 16/16/7 15/15/7
f 16/16/8 18/18/8 17/17/8
f 18/18/9 20/20/9 19/19/9
f 20/20/10 22/22/10 21/21/10
f 22/22/11 24/24/11 23/23/11
f 24/24/12 26/26/12 25/25/12
f 26/26/13 28/28/13 27/27/13
f 28/28/14 30/33/14 29/29/14
f 6/32/15 4/40/15 2/41/15
f 2/41/15 32/42/15 30/43/15
f 30/43/15 28/44/15 26/45/15
f 26/45/15 24/46/15 22/30/15
f 22/30/15 20/47/15 18/48/15
f 18/48/15 16/49/15 14/31/15
f 14/31/15 12/50/15 10/51/15
f 10/51/15 8/52/15 6/32/15
f 6/32/15 2/41/15 30/43/15
f 30/43/15 26/45/15 22/30/15
f 22/30/15 18/48/15 14/31/15
f 14/31/15 10/51/15 6/32/15
f 6/32/15 30/43/15 22/30/15
f 30/33/16 32/35/16 31/34/16
f 32/35/17 2/53/17 1/36/17
f 31/39/18 1/54/18 3/55/18
f 3/55/18 5/56/18 7/57/18
f 7/57/18 9/58/18 11/59/18
f 11/59/18 13/60/18 15/37/18
f 15/37/18 17/61/18 19/62/18
f 19/62/18 21/63/18 23/38/18
f 23/38/18 25/64/18 27/65/18
f 27/65/18 29/66/18 31/39/18
f 31/39/18 3/55/18 7/57/18
f 7/57/18 11/59/18 15/37/18
f 15/37/18 19/62/18 23/38/18
f 23/38/18 27/65/18 31/39/18
f 31/39/18 7/57/18 15/37/18
f 36/39/18 33/54/18 34/55/18
f 34/55/18 61/56/18 60/57/18
f 60/57/18 59/58/18 58/59/18
f 58/59/18 53/60/18 52/37/18
f 52/37/18 51/61/18 50/62/18
f 50/62/18 45/63/18 44/38/18
f 44/38/18 43/64/18 42/65/18
f 42/65/18 37/66/18 36/39/18
f 36/39/18 34/55/18 60/57/18
f 60/57/18 58/59/18 52/37/18
f 52/37/18 50/62/18 44/38/18
f 44/38/18 42/65/18 36/39/18
f 36/39/18 60/57/18 52/37/18
f 35/1/1 64/4/1 34/2/1
f 38/35/17 35/53/17 33/36/17
f 39/33/16 38/35/16 36/34/16
f 63/32/15 64/40/15 35/41/15
f 35/41/15 38/42/15 39/43/15
f 39/43/15 40/44/15 41/45/15
f 41/45/15 46/46/15 47/30/15
f 47/30/15 48/47/15 49/48/15
f 49/48/15 54/49/15 55/31/15
f 55/31/15 56/50/15 57/51/15
f 57/51/15 62/52/15 63/32/15
f 63/32/15 35/41/15 39/43/15
f 39/43/15 41/45/15 47/30/15
f 47/30/15 49/48/15 55/31/15
f 55/31/15 57/51/15 63/32/15
f 63/32/15 39/43/15 47/30/15
f 40/28/14 39/33/14 37/29/14
f 41/26/13 40/28/13 42/27/13
f 46/24/12 41/26/12 43/25/12
f 47/22/11 46/24/11 44/23/11
f 48/20/10 47/22/10 45/21/10
f 49/18/9 48/20/9 50/19/9
f 54/16/8 49/18/8 51/17/8
f 55/14/7 54/16/7 52/15/7
f 56/12/6 55/14/6 53/13/6
f 57/10/5 56/12/5 58/11/5
f 62/8/4 57/10/4 59/9/4
f 63/6/3 62/8/3 60/7/3
f 64/4/2 63/6/2 61/5/2
f 68/39/18 65/54/18 66/55/18
f 66/55/18 93/56/18 92/57/18
f 92/57/18 91/58/18 90/59/18
f 90/59/18 85/60/18 84/37/18
f 84/37/18 83/61/18 82/62/18
f 82/62/18 77/63/18 76/38/18
f 76/38/18 75/64/18 74/65/18
f 74/65/18 69/66/18 68/39/18
f 68/39/18 66/55/18 92/57/18
f 92/57/18 90/59/18 84/37/18
f 84/37/18 82/62/18 76/38/18
f 76/38/18 74/65/18 68/39/18
f 68/39/18 92/57/18 84/37/18
f 67/1/1 96/4/1 66/2/1
f 70/35/17 67/53/17 65/36/17
f 71/33/16 70/35/16 68/34/16
f 95/32/15 96/40/15 67/41/15
f 67/41/15 70/42/15 71/43/15
f 71/43/15 72/44/15 73/45/15
f 73/45/15 78/46/15 79/30/15
f 79/30/15 80/47/15 81/48/15
f 81/48/15 86/49/15 87/31/15
f 87/31/15 88/50/15 89/51/15
f 89/51/15 94/52/15 95/32/15
f 95/32/15 67/41/15 71/43/15
f 71/43/15 73/45/15 79/30/15
f 79/30/15 81/48/15 87/31/15
f 87/31/15 89/51/15 95/32/15
f 95/32/15 71/43/15 79/30/15
f 72/28/14 71/33/14 69/29/14
f 73/26/13 72/28/13 74/27/13
f 78/24/12 73/26/12 75/25/12
f 79/22/11 78/24/11 76/23/11
f 80/20/10 79/22/10 77/21/10
f 81/18/9 80/20/9 82/19/9
f 86/16/8 81/18/8 83/17/8
f 87/14/7 86/16/7 84/15/7
f 88/12/6 87/14/6 85/13/6
f 89/10/5 88/12/5 90/11/5
f 94/8/4 89/10/4 91/9/4
f 95/6/3 94/8/3 92/7/3
f 96/4/2 95/6/2 93/5/2
