# Blender 5.1.2
# www.blender.org
mtllib ruddervator_left.mtl
o defaultMaterial.008
v -0.028457 -0.130640 0.074460
v -0.028274 -0.131462 0.075036
v -0.028274 -0.130427 0.076830
v -0.028457 -0.129516 0.076407
v -0.028274 -0.131462 0.075036
v -0.027777 -0.131976 0.075609
v -0.027777 -0.131179 0.076989
v -0.028274 -0.130427 0.076830
v -0.027777 -0.131976 0.075609
v -0.027097 -0.132046 0.076025
v -0.027097 -0.131574 0.076841
v -0.027777 -0.131179 0.076989
v -0.028457 0.130314 -0.072989
v -0.028457 0.128655 -0.075862
v -0.001374 -0.128523 0.078413
v -0.000646 -0.128540 0.078109
v -0.000641 0.131557 -0.070147
v -0.001359 0.131987 -0.070085
v -0.000646 -0.128540 0.078109
v -0.000337 -0.128803 0.077353
v -0.000337 0.130467 -0.070420
v -0.000641 0.131557 -0.070147
v -0.000641 -0.129372 0.078333
v -0.000337 -0.129351 0.077513
v -0.001364 -0.129418 0.078641
v -0.000641 -0.129372 0.078333
v -0.001359 0.131987 -0.070085
v -0.000641 0.131557 -0.070147
v -0.000641 0.126815 -0.078359
v -0.001359 0.126977 -0.078763
v -0.000641 0.131557 -0.070147
v -0.000337 0.126507 -0.077279
v -0.000641 0.126815 -0.078359
v -0.000635 -0.130188 0.078118
v -0.000337 -0.129757 0.077421
v -0.001350 -0.130395 0.078374
v -0.000635 -0.130188 0.078118
v -0.000631 -0.130819 0.077491
v -0.000337 -0.130175 0.077016
v -0.001340 -0.131101 0.077661
v -0.000631 -0.130819 0.077491
v -0.000631 -0.132231 0.075046
v -0.000337 -0.131497 0.074726
v -0.000631 -0.130819 0.077491
v -0.001340 -0.131101 0.077661
v -0.001340 -0.132519 0.075204
v -0.000631 -0.132231 0.075046
v -0.000635 -0.132459 0.074185
v -0.000337 -0.131638 0.074161
v -0.001350 -0.132784 0.074238
v -0.000635 -0.132459 0.074185
v -0.000641 -0.132236 0.073372
v -0.000337 -0.131515 0.073764
v -0.001364 -0.132527 0.073257
v -0.000641 -0.132236 0.073372
v -0.000646 -0.131627 0.072763
v -0.000337 -0.131104 0.073369
v -0.001374 -0.131882 0.072596
v -0.000646 -0.131627 0.072763
v -0.000641 0.126815 -0.078359
v -0.001359 0.126977 -0.078763
v -0.000641 0.126815 -0.078359
v -0.028457 -0.129516 0.076407
v -0.028457 0.130314 -0.072989
v -0.028274 -0.130427 0.076830
v -0.027777 -0.131179 0.076989
v -0.027777 -0.131179 0.076989
v -0.027097 -0.131574 0.076841
v -0.027777 -0.131976 0.075609
v -0.028274 -0.131462 0.075036
v -0.028457 -0.130640 0.074460
v -0.028457 0.128655 -0.075862
v -0.028457 0.130314 -0.072989
v -0.028457 0.128655 -0.075862
v -0.012306 0.084507 -0.059894
v -0.010883 0.084894 -0.063031
v -0.009858 0.084381 -0.062827
v -0.010744 0.083610 -0.059517
v -0.010800 0.084842 -0.055172
v -0.012635 0.085914 -0.055624
v -0.009181 0.085308 -0.064284
v -0.009850 0.085566 -0.064372
v -0.010894 0.090724 -0.066396
v -0.012311 0.093628 -0.065159
v -0.010754 0.094399 -0.065745
v -0.009864 0.091153 -0.066737
v -0.009188 0.089430 -0.066663
v -0.009864 0.089229 -0.066486
v -0.012638 0.096620 -0.061806
v -0.010805 0.097547 -0.062506
v -0.011639 0.086616 -0.063956
v -0.010219 0.086535 -0.064898
v -0.010085 0.085938 -0.064565
v -0.011368 0.085628 -0.063411
v -0.013165 0.085785 -0.060554
v -0.013645 0.087367 -0.061424
v -0.013664 0.087441 -0.056413
v -0.014238 0.089304 -0.057437
v -0.012635 0.085914 -0.055624
v -0.014238 0.093357 -0.059777
v -0.013648 0.090874 -0.063448
v -0.011650 0.089059 -0.065366
v -0.010235 0.088286 -0.065908
v -0.013664 0.095174 -0.060878
v -0.013169 0.092417 -0.064383
v -0.011380 0.090028 -0.065950
v -0.012638 0.096620 -0.061806
v -0.010105 0.088875 -0.066260
v -0.012573 0.098204 -0.059598
v -0.012573 0.087036 -0.053150
v -0.010644 0.085917 -0.052678
v -0.010644 0.099172 -0.060331
v -0.013647 0.096695 -0.058629
v -0.013647 0.088630 -0.053973
v -0.014245 0.094798 -0.057480
v -0.014245 0.090573 -0.055041
v -0.014245 0.094798 -0.057480
v -0.014245 0.090573 -0.055041
v -0.013647 0.088630 -0.053973
v -0.012573 0.087036 -0.053150
v -0.012573 0.087036 -0.053150
v -0.010644 0.085917 -0.052678
v -0.010644 0.099172 -0.060331
v -0.012573 0.098204 -0.059598
v -0.012573 0.098204 -0.059598
v -0.013647 0.096695 -0.058629
v -0.000465 0.085596 -0.053235
v -0.000465 0.098851 -0.060888
v -0.000465 0.098851 -0.060888
v -0.000465 0.097219 -0.063074
v -0.000464 0.094073 -0.066310
v -0.000464 0.090860 -0.067241
v -0.000462 0.089165 -0.067122
v -0.000462 0.085044 -0.064743
v -0.000464 0.084090 -0.063333
v -0.000464 0.083285 -0.060081
v -0.000465 0.084515 -0.055739
v -0.000465 0.085596 -0.053235
v -0.000464 0.090860 -0.067241
v -0.000464 0.084090 -0.063333
v -0.000462 0.085044 -0.064743
v -0.000462 0.089165 -0.067122
v -0.000465 0.085596 -0.053235
v -0.000465 0.084515 -0.055739
v -0.000465 0.097219 -0.063074
v -0.000465 0.098851 -0.060888
v -0.000464 0.083285 -0.060081
v -0.000464 0.094073 -0.066310
v -0.012306 -0.041308 0.012745
v -0.010883 -0.040921 0.009608
v -0.009858 -0.041434 0.009811
v -0.010744 -0.042204 0.013122
v -0.010800 -0.040972 0.017467
v -0.012635 -0.039901 0.017015
v -0.009181 -0.040507 0.008355
v -0.009850 -0.040248 0.008267
v -0.010894 -0.035090 0.006243
v -0.012311 -0.032186 0.007480
v -0.010754 -0.031415 0.006894
v -0.009864 -0.034662 0.005902
v -0.009188 -0.036384 0.005976
v -0.009864 -0.036585 0.006153
v -0.012638 -0.029194 0.010833
v -0.010805 -0.028268 0.010133
v -0.011639 -0.039199 0.008682
v -0.010219 -0.039279 0.007741
v -0.010085 -0.039877 0.008074
v -0.011368 -0.040186 0.009228
v -0.013165 -0.040029 0.012085
v -0.013645 -0.038447 0.011215
v -0.013664 -0.038373 0.016226
v -0.014238 -0.036510 0.015202
v -0.012635 -0.039901 0.017015
v -0.014238 -0.032458 0.012862
v -0.013648 -0.034940 0.009191
v -0.011650 -0.036755 0.007273
v -0.010235 -0.037527 0.006731
v -0.013664 -0.030641 0.011761
v -0.013169 -0.033397 0.008256
v -0.011380 -0.035787 0.006689
v -0.012638 -0.029194 0.010833
v -0.010105 -0.036939 0.006379
v -0.012573 -0.027610 0.013041
v -0.012573 -0.038778 0.019489
v -0.010644 -0.039898 0.019960
v -0.010644 -0.026642 0.012308
v -0.013647 -0.029120 0.014010
v -0.013647 -0.037184 0.018666
v -0.014245 -0.031016 0.015159
v -0.014245 -0.035241 0.017598
v -0.014245 -0.031016 0.015159
v -0.014245 -0.035241 0.017598
v -0.013647 -0.037184 0.018666
v -0.012573 -0.038778 0.019489
v -0.012573 -0.038778 0.019489
v -0.010644 -0.039898 0.019960
v -0.010644 -0.026642 0.012308
v -0.012573 -0.027610 0.013041
v -0.012573 -0.027610 0.013041
v -0.013647 -0.029120 0.014010
v -0.000465 -0.040218 0.019404
v -0.000465 -0.026964 0.011751
v -0.000465 -0.026964 0.011751
v -0.000465 -0.028595 0.009565
v -0.000464 -0.031741 0.006329
v -0.000464 -0.034954 0.005398
v -0.000462 -0.036650 0.005517
v -0.000462 -0.040770 0.007896
v -0.000464 -0.041723 0.009306
v -0.000464 -0.042530 0.012557
v -0.000465 -0.041299 0.016900
v -0.000465 -0.040218 0.019404
v -0.000464 -0.034954 0.005398
v -0.000464 -0.041723 0.009306
v -0.000462 -0.040770 0.007896
v -0.000462 -0.036650 0.005517
v -0.000465 -0.040218 0.019404
v -0.000465 -0.041299 0.016900
v -0.000465 -0.028595 0.009565
v -0.000465 -0.026964 0.011751
v -0.000464 -0.042530 0.012557
v -0.000464 -0.031741 0.006329
vn -1.0000 0.0081 -0.0045
vn -1.0000 0.0080 -0.0047
vn -0.9838 -0.1550 0.0895
vn -0.9838 -0.1551 0.0895
vn -0.8268 -0.4870 0.2814
vn -0.8268 -0.4871 0.2814
vn -0.8267 -0.4873 0.2812
vn -0.0736 -0.6530 0.7538
vn -0.0637 -0.9850 0.1601
vn -0.0199 -0.9277 0.3727
vn -0.0306 -0.7868 0.6165
vn -1.0000 -0.0000 -0.0000
vn -0.0804 0.4935 0.8660
vn -0.0710 0.4932 0.8670
vn 0.3512 0.4652 0.8126
vn 0.3497 0.4639 0.8139
vn 0.9313 0.1804 0.3165
vn 0.9310 0.1844 0.3151
vn 0.9995 0.0181 0.0275
vn 0.9985 0.0161 0.0525
vn 0.9962 0.0043 0.0865
vn 0.9374 0.0134 0.3481
vn 0.3933 0.0045 0.9194
vn -0.0390 0.1390 0.9895
vn 0.0312 0.8667 -0.4979
vn 0.0308 0.8646 -0.5016
vn 0.4301 0.7818 -0.4514
vn 0.4297 0.7820 -0.4515
vn 0.9360 0.3049 -0.1760
vn 0.9985 -0.0374 -0.0402
vn 0.9905 -0.0680 0.1196
vn 0.9400 -0.1720 0.2946
vn 0.4143 -0.4463 0.7932
vn -0.0094 -0.3339 0.9426
vn 0.9603 -0.2335 0.1526
vn 0.9382 -0.2907 0.1877
vn 0.4214 -0.7545 0.5031
vn 0.0289 -0.8106 0.5849
vn 0.9603 -0.2489 0.1261
vn 0.9382 -0.3079 0.1579
vn 0.4212 -0.8142 0.3995
vn 0.4218 -0.7518 0.5068
vn 0.0310 -0.8091 0.5868
vn 0.0301 -0.9124 0.4082
vn 0.9905 -0.1376 -0.0010
vn 0.9400 -0.3412 0.0017
vn 0.4141 -0.9102 -0.0102
vn -0.0099 -0.9832 -0.1822
vn 0.9963 -0.0725 -0.0472
vn 0.9373 -0.2948 -0.1857
vn 0.3934 -0.7939 -0.4636
vn -0.0394 -0.7875 -0.6151
vn 0.9994 -0.0149 -0.0300
vn 0.9309 -0.1808 -0.3174
vn 0.3511 -0.4712 -0.8092
vn -0.0709 -0.5045 -0.8605
vn 0.9313 -0.1839 -0.3145
vn 0.3493 -0.4730 -0.8089
vn -0.0804 -0.5015 -0.8614
vn -0.1047 0.4941 0.8631
vn -0.1003 0.4936 0.8639
vn -0.0795 0.1950 0.9776
vn -0.0626 -0.0805 0.9948
vn -0.0616 -0.6475 0.7596
vn -0.0231 -0.7877 0.6157
vn -0.0615 -0.9012 -0.4290
vn -0.0783 -0.7491 -0.6578
vn -0.1000 -0.5015 -0.8594
vn -0.1047 -0.5004 -0.8594
vn 0.0001 0.8660 -0.5000
vn -0.1172 -0.9886 0.0944
vn -0.6639 -0.7478 0.0063
vn -0.4954 -0.7721 -0.3980
vn -0.0928 -0.9424 -0.3212
vn -0.1159 -0.9385 0.3253
vn -0.7004 -0.6757 0.2302
vn -0.2028 -0.6109 -0.7653
vn -0.0743 -0.6191 -0.7818
vn -0.0987 0.2003 -0.9748
vn -0.4920 0.0442 -0.8695
vn -0.6640 0.3799 -0.6440
vn -0.1127 0.5699 -0.8139
vn -0.0757 -0.3674 -0.9270
vn -0.2061 -0.3582 -0.9106
vn -0.7006 0.5372 -0.4697
vn -0.1164 0.7469 -0.6547
vn -0.6723 -0.5609 -0.4831
vn -0.7261 -0.3862 -0.5689
vn -0.4584 -0.4703 -0.7541
vn -0.3430 -0.5523 -0.7598
vn -0.8740 -0.4735 -0.1090
vn -0.9474 -0.2198 -0.2326
vn -0.9185 -0.3822 0.1013
vn -0.9932 -0.1111 -0.0340
vn -0.7020 -0.6741 0.2296
vn -0.9476 -0.0936 -0.3055
vn -0.9933 0.0259 -0.1130
vn -0.7263 -0.3054 -0.6158
vn -0.4595 -0.4269 -0.7789
vn -0.8761 0.1398 -0.4615
vn -0.9187 0.2787 -0.2798
vn -0.6729 -0.1354 -0.7272
vn -0.7022 0.5360 -0.4686
vn -0.3456 -0.3832 -0.8566
vn 0.0650 0.4988 0.8643
vn 0.0782 0.4985 0.8634
vn 0.0781 0.4985 0.8634
vn 0.0649 0.4991 0.8641
vn 0.0774 0.4985 0.8634
vn 0.0778 0.4985 0.8634
vn 0.0783 0.4985 0.8634
vn -0.9967 -0.0732 0.0358
vn -0.9967 0.0677 -0.0456
vn -0.9212 -0.3470 0.1758
vn -0.7010 -0.6424 0.3098
vn -0.1149 -0.9106 0.3970
vn -0.6999 -0.6433 0.3105
vn -0.7000 0.5903 -0.4020
vn -0.1142 0.7995 -0.5898
vn -0.9213 0.3256 -0.2127
vn -0.7011 0.5892 -0.4017
vn 0.0630 0.4990 0.8643
vn -0.0074 0.8013 -0.5982
vn -0.0126 0.7485 -0.6631
vn -0.0288 0.5460 -0.8373
vn -0.0481 0.1678 -0.9847
vn -0.0607 -0.3915 -0.9182
vn -0.0603 -0.5992 -0.7983
vn -0.0481 -0.9362 -0.3481
vn -0.0288 -0.9982 0.0535
vn -0.0125 -0.9482 0.3173
vn -0.0073 -0.9181 0.3964
vn 1.0000 0.0003 0.0005
vn 1.0000 0.0001 0.0001
vn 1.0000 0.0001 0.0002
vn 1.0000 0.0003 0.0004
vn 1.0000 0.0001 0.0003
vn 1.0000 -0.0000 -0.0000
vn -0.0928 -0.9424 -0.3213
vn -0.7003 -0.6757 0.2302
vn -0.2030 -0.6109 -0.7653
vn -0.0744 -0.6190 -0.7819
vn -0.4920 0.0443 -0.8695
vn -0.6640 0.3799 -0.6441
vn -0.1128 0.5699 -0.8140
vn -0.0757 -0.3675 -0.9269
vn -0.2061 -0.3583 -0.9106
vn -0.6723 -0.5610 -0.4831
vn -0.7260 -0.3862 -0.5689
vn -0.4586 -0.4700 -0.7542
vn -0.3431 -0.5522 -0.7598
vn -0.9185 -0.3822 0.1012
vn -0.7263 -0.3055 -0.6157
vn -0.4595 -0.4269 -0.7788
vn -0.6729 -0.1354 -0.7273
vn -0.3455 -0.3833 -0.8566
vn 0.0649 0.4988 0.8643
vn 0.0779 0.4985 0.8634
vn 0.0650 0.4991 0.8641
vn 0.0780 0.4985 0.8634
vn 0.0777 0.4985 0.8634
vn 0.0783 0.4984 0.8634
vn 0.0776 0.4984 0.8635
vn -0.9212 -0.3471 0.1758
vn -0.7010 -0.6424 0.3097
vn -0.6999 -0.6432 0.3105
vn -0.7000 0.5903 -0.4019
vn -0.7011 0.5892 -0.4016
vn -0.0075 0.8011 -0.5984
vn -0.0126 0.7485 -0.6630
vn -0.0481 0.1677 -0.9847
vn -0.0481 -0.9362 -0.3482
vn -0.0073 -0.9181 0.3962
vn 1.0000 -0.0000 0.0001
vn 1.0000 0.0002 0.0005
vn 1.0000 -0.0001 -0.0002
vt 0.945992 0.567983
vt 0.946264 0.571294
vt 0.947264 0.571363
vt 0.947044 0.567915
vt 0.947967 0.570857
vt 0.948474 0.567725
vt 0.949640 0.571800
vt 0.948005 0.571958
vt 0.948584 0.572813
vt 0.949552 0.572720
vt 0.637742 0.567453
vt 0.636040 0.569679
vt 0.635801 0.531280
vt 0.945808 0.531300
vt 0.945824 0.530316
vt 0.636313 0.530323
vt 0.945669 0.529489
vt 0.637151 0.529520
vt 0.946242 0.529351
vt 0.946682 0.530076
vt 0.946818 0.530323
vt 0.946873 0.531286
vt 0.625585 0.532799
vt 0.635586 0.530344
vt 0.625920 0.531781
vt 0.636355 0.520525
vt 0.637186 0.521335
vt 0.946559 0.529060
vt 0.947304 0.529466
vt 0.947789 0.530315
vt 0.948036 0.531268
vt 0.946727 0.528483
vt 0.947548 0.528579
vt 0.948540 0.530310
vt 0.948874 0.531255
vt 0.946739 0.525751
vt 0.947560 0.525662
vt 0.950810 0.608035
vt 0.953705 0.607756
vt 0.953818 0.606795
vt 0.950906 0.607076
vt 0.946576 0.525173
vt 0.947324 0.524773
vt 0.949790 0.608128
vt 0.949761 0.607174
vt 0.946261 0.524878
vt 0.946708 0.524157
vt 0.948527 0.608314
vt 0.948586 0.607360
vt 0.945690 0.524735
vt 0.945848 0.523923
vt 0.947503 0.608409
vt 0.947806 0.607438
vt 0.639957 0.608416
vt 0.639765 0.607459
vt 0.949438 0.565583
vt 0.720397 0.489137
vt 0.723274 0.488336
vt 0.721073 0.485524
vt 0.719157 0.486199
vt 0.720742 0.494610
vt 0.723292 0.494668
vt 0.719147 0.483973
vt 0.718221 0.484305
vt 0.719166 0.476524
vt 0.721081 0.477195
vt 0.723279 0.474442
vt 0.720410 0.473659
vt 0.718230 0.478416
vt 0.719167 0.478741
vt 0.723345 0.468220
vt 0.720801 0.468253
vt 0.721432 0.484502
vt 0.721634 0.483105
vt 0.719659 0.482610
vt 0.719473 0.483455
vt 0.724772 0.486101
vt 0.724819 0.483868
vt 0.730235 0.486888
vt 0.730290 0.484259
vt 0.730135 0.489013
vt 0.724820 0.478857
vt 0.730290 0.478469
vt 0.721642 0.479615
vt 0.719682 0.480108
vt 0.724773 0.476625
vt 0.730235 0.475840
vt 0.721442 0.478216
vt 0.730135 0.473716
vt 0.719500 0.479260
vt 0.768151 0.442725
vt 0.766351 0.439498
vt 0.747087 0.439498
vt 0.745287 0.442725
vt 0.763674 0.437703
vt 0.749764 0.437703
vt 0.760363 0.436700
vt 0.753075 0.436700
vt 0.733643 0.484381
vt 0.733643 0.478344
vt 0.733585 0.487124
vt 0.733481 0.489341
vt 0.720685 0.497954
vt 0.723364 0.498014
vt 0.723444 0.464875
vt 0.720765 0.464910
vt 0.733585 0.475602
vt 0.733481 0.473384
vt 0.745287 0.459755
vt 0.768151 0.459755
vt 0.706636 0.464907
vt 0.706446 0.468254
vt 0.706140 0.473659
vt 0.706139 0.476525
vt 0.706139 0.478416
vt 0.706139 0.484304
vt 0.706139 0.486198
vt 0.706140 0.489072
vt 0.706397 0.494480
vt 0.706556 0.497829
vt 0.743896 0.481441
vt 0.744818 0.483332
vt 0.744818 0.473659
vt 0.743896 0.475553
vt 0.756569 0.487963
vt 0.756569 0.469025
vt 0.753217 0.469416
vt 0.753217 0.487567
vt 0.747803 0.486198
vt 0.747803 0.470784
s 1
usemtl MQ9_Gray
f 4/1/1 1/2/2 2/3/3
f 2/3/3 3/4/4 4/1/1
s 0
f 8/4/5 5/3/5 6/5/6
f 6/5/7 7/6/7 8/4/7
s 1
f 12/7/8 9/8/9 10/9/10
f 10/9/10 11/10/11 12/7/8
f 4/1/1 13/11/12 14/12/12
f 14/12/12 1/2/2 4/1/1
f 18/13/13 15/14/14 16/15/15
f 16/15/15 17/16/16 18/13/13
f 22/16/17 19/15/18 20/17/19
f 20/17/19 21/18/20 22/16/17
f 24/19/21 20/17/19 19/15/18
f 19/15/18 23/20/22 24/19/21
f 26/21/23 16/15/15 15/14/14
f 15/14/14 25/22/24 26/21/23
f 30/23/25 27/13/26 28/24/27
f 28/24/27 29/25/28 30/23/25
f 33/26/29 31/16/29 21/18/20
f 21/18/20 32/27/30 33/26/29
f 35/28/31 24/19/21 23/20/22
f 23/20/22 34/29/32 35/28/31
f 37/30/33 26/21/23 25/22/24
f 25/22/24 36/31/34 37/30/33
f 39/32/35 35/28/31 34/29/32
f 34/29/32 38/33/36 39/32/35
f 41/34/37 37/30/33 36/31/34
f 36/31/34 40/35/38 41/34/37
f 43/36/39 39/32/35 38/33/36
f 38/33/36 42/37/40 43/36/39
f 47/38/41 44/39/42 45/40/43
f 45/40/43 46/41/44 47/38/41
f 49/42/45 43/36/39 42/37/40
f 42/37/40 48/43/46 49/42/45
f 51/44/47 47/38/41 46/41/44
f 46/41/44 50/45/48 51/44/47
f 53/46/49 49/42/45 48/43/46
f 48/43/46 52/47/50 53/46/49
f 55/48/51 51/44/47 50/45/48
f 50/45/48 54/49/52 55/48/51
f 57/50/53 53/46/49 52/47/50
f 52/47/50 56/51/54 57/50/53
f 59/52/55 55/48/51 54/49/52
f 54/49/52 58/53/56 59/52/55
f 32/27/30 57/50/53 56/51/54
f 56/51/54 60/26/57 32/27/30
f 62/54/58 59/52/55 58/53/56
f 58/53/56 61/55/59 62/54/58
f 64/11/60 63/1/61 15/14/14
f 15/14/14 18/13/13 64/11/60
f 15/14/14 63/1/61 65/4/62
f 65/4/62 25/22/24 15/14/14
f 25/22/24 65/4/62 66/6/63
f 66/6/63 36/31/34 25/22/24
f 36/31/34 67/6/64 68/56/65
f 68/56/65 40/35/38 36/31/34
f 10/9/10 46/41/44 45/40/43
f 45/40/43 11/10/11 10/9/10
f 46/41/44 10/9/10 9/8/9
f 9/8/9 50/45/48 46/41/44
f 50/45/48 69/8/66 70/3/67
f 70/3/67 54/49/52 50/45/48
f 54/49/52 70/3/67 71/2/68
f 71/2/68 58/53/56 54/49/52
f 71/2/68 72/12/69 61/55/59
f 61/55/59 58/53/56 71/2/68
f 74/12/70 73/11/70 27/13/26
f 27/13/26 30/23/25 74/12/70
f 32/27/30 21/18/20 20/17/19
f 20/17/19 57/50/53 32/27/30
f 57/50/53 20/17/19 24/19/21
f 24/19/21 53/46/49 57/50/53
f 53/46/49 24/19/21 35/28/31
f 35/28/31 49/42/45 53/46/49
f 49/42/45 35/28/31 39/32/35
f 39/32/35 43/36/39 49/42/45
f 78/57/71 75/58/72 76/59/73
f 76/59/73 77/60/74 78/57/71
f 75/58/72 78/57/71 79/61/75
f 79/61/75 80/62/76 75/58/72
f 82/63/77 81/64/78 77/60/74
f 77/60/74 76/59/73 82/63/77
f 86/65/79 83/66/80 84/67/81
f 84/67/81 85/68/82 86/65/79
f 83/66/80 86/65/79 87/69/83
f 87/69/83 88/70/84 83/66/80
f 85/68/82 84/67/81 89/71/85
f 89/71/85 90/72/86 85/68/82
f 94/73/87 91/74/88 92/75/89
f 92/75/89 93/76/90 94/73/87
f 91/74/88 94/73/87 95/77/91
f 95/77/91 96/78/92 91/74/88
f 76/59/73 75/58/72 95/77/91
f 95/77/91 94/73/87 76/59/73
f 94/73/87 93/76/90 82/63/77
f 82/63/77 76/59/73 94/73/87
f 96/78/92 95/77/91 97/79/93
f 97/79/93 98/80/94 96/78/92
f 95/77/91 75/58/72 99/81/95
f 99/81/95 97/79/93 95/77/91
f 101/82/96 96/78/92 98/80/94
f 98/80/94 100/83/97 101/82/96
f 96/78/92 101/82/96 102/84/98
f 102/84/98 91/74/88 96/78/92
f 92/75/89 91/74/88 102/84/98
f 102/84/98 103/85/99 92/75/89
f 105/86/100 101/82/96 100/83/97
f 100/83/97 104/87/101 105/86/100
f 101/82/96 105/86/100 106/88/102
f 106/88/102 102/84/98 101/82/96
f 84/67/81 83/66/80 106/88/102
f 106/88/102 105/86/100 84/67/81
f 84/67/81 105/86/100 104/87/101
f 104/87/101 107/89/103 84/67/81
f 103/85/99 102/84/98 106/88/102
f 106/88/102 108/90/104 103/85/99
f 108/90/104 106/88/102 83/66/80
f 83/66/80 88/70/84 108/90/104
f 103/85/99 108/90/104 93/76/90
f 93/76/90 92/75/89 103/85/99
f 108/90/104 88/70/84 82/63/77
f 82/63/77 93/76/90 108/90/104
f 88/70/84 87/69/83 81/64/78
f 81/64/78 82/63/77 88/70/84
f 112/91/105 109/92/106 110/93/107
f 110/93/107 111/94/108 112/91/105
s 0
f 109/92/106 113/95/106 114/96/106
f 114/96/107 110/93/107 109/92/107
s 1
f 113/95/107 115/97/109 116/98/110
f 116/98/110 114/96/111 113/95/107
f 118/99/112 117/100/113 100/83/97
f 100/83/97 98/80/94 118/99/112
f 119/101/114 118/99/112 98/80/94
f 98/80/94 97/79/93 119/101/114
f 120/102/115 119/101/114 97/79/93
f 97/79/93 99/81/95 120/102/115
f 122/103/116 121/104/117 80/62/76
f 80/62/76 79/61/75 122/103/116
f 124/105/118 123/106/119 90/72/86
f 90/72/86 89/71/85 124/105/118
f 126/107/120 125/108/121 107/89/103
f 107/89/103 104/87/101 126/107/120
f 117/100/113 126/107/120 104/87/101
f 104/87/101 100/83/97 117/100/113
f 111/94/108 127/109/122 128/110/122
f 128/110/122 112/91/105 111/94/108
f 123/106/119 129/111/123 130/112/124
f 130/112/124 90/72/86 123/106/119
f 90/72/86 130/112/124 131/113/125
f 131/113/125 85/68/82 90/72/86
f 85/68/82 131/113/125 132/114/126
f 132/114/126 86/65/79 85/68/82
f 86/65/79 132/114/126 133/115/127
f 133/115/127 87/69/83 86/65/79
f 87/69/83 133/115/127 134/116/128
f 134/116/128 81/64/78 87/69/83
f 81/64/78 134/116/128 135/117/129
f 135/117/129 77/60/74 81/64/78
f 77/60/74 135/117/129 136/118/130
f 136/118/130 78/57/71 77/60/74
f 78/57/71 136/118/130 137/119/131
f 137/119/131 79/61/75 78/57/71
f 79/61/75 137/119/131 138/120/132
f 138/120/132 122/103/116 79/61/75
f 142/121/133 139/122/134 140/123/135
f 140/123/135 141/124/136 142/121/133
s 0
f 146/125/137 143/126/137 144/127/138
f 144/127/138 145/128/138 146/125/138
f 148/129/137 145/128/137 144/127/137
f 144/127/138 147/130/138 148/129/138
f 139/122/138 148/129/138 147/130/138
f 147/130/138 140/123/138 139/122/138
s 1
f 152/57/71 149/58/72 150/59/73
f 150/59/73 151/60/139 152/57/71
f 149/58/72 152/57/71 153/61/75
f 153/61/75 154/62/140 149/58/72
f 156/63/141 155/64/142 151/60/139
f 151/60/139 150/59/73 156/63/141
f 160/65/79 157/66/143 158/67/144
f 158/67/144 159/68/145 160/65/79
f 157/66/143 160/65/79 161/69/146
f 161/69/146 162/70/147 157/66/143
f 159/68/145 158/67/144 163/71/85
f 163/71/85 164/72/86 159/68/145
f 168/73/148 165/74/149 166/75/150
f 166/75/150 167/76/151 168/73/148
f 165/74/149 168/73/148 169/77/91
f 169/77/91 170/78/92 165/74/149
f 150/59/73 149/58/72 169/77/91
f 169/77/91 168/73/148 150/59/73
f 168/73/148 167/76/151 156/63/141
f 156/63/141 150/59/73 168/73/148
f 170/78/92 169/77/91 171/79/152
f 171/79/152 172/80/94 170/78/92
f 169/77/91 149/58/72 173/81/95
f 173/81/95 171/79/152 169/77/91
f 175/82/96 170/78/92 172/80/94
f 172/80/94 174/83/97 175/82/96
f 170/78/92 175/82/96 176/84/153
f 176/84/153 165/74/149 170/78/92
f 166/75/150 165/74/149 176/84/153
f 176/84/153 177/85/154 166/75/150
f 179/86/100 175/82/96 174/83/97
f 174/83/97 178/87/101 179/86/100
f 175/82/96 179/86/100 180/88/155
f 180/88/155 176/84/153 175/82/96
f 158/67/144 157/66/143 180/88/155
f 180/88/155 179/86/100 158/67/144
f 158/67/144 179/86/100 178/87/101
f 178/87/101 181/89/103 158/67/144
f 177/85/154 176/84/153 180/88/155
f 180/88/155 182/90/156 177/85/154
f 182/90/156 180/88/155 157/66/143
f 157/66/143 162/70/147 182/90/156
f 177/85/154 182/90/156 167/76/151
f 167/76/151 166/75/150 177/85/154
f 182/90/156 162/70/147 156/63/141
f 156/63/141 167/76/151 182/90/156
f 162/70/147 161/69/146 155/64/142
f 155/64/142 156/63/141 162/70/147
f 186/91/157 183/92/110 184/93/158
f 184/93/158 185/94/159 186/91/157
s 0
f 183/92/160 187/95/161 188/96/161
f 188/96/110 184/93/106 183/92/106
f 187/95/162 189/97/163 190/98/163
f 190/98/160 188/96/160 187/95/160
s 1
f 192/99/112 191/100/113 174/83/97
f 174/83/97 172/80/94 192/99/112
f 193/101/164 192/99/112 172/80/94
f 172/80/94 171/79/152 193/101/164
f 194/102/165 193/101/164 171/79/152
f 171/79/152 173/81/95 194/102/165
f 196/103/116 195/104/166 154/62/140
f 154/62/140 153/61/75 196/103/116
f 198/105/167 197/106/119 164/72/86
f 164/72/86 163/71/85 198/105/167
f 200/107/120 199/108/168 181/89/103
f 181/89/103 178/87/101 200/107/120
f 191/100/113 200/107/120 178/87/101
f 178/87/101 174/83/97 191/100/113
f 185/94/159 201/109/122 202/110/122
f 202/110/122 186/91/157 185/94/159
f 197/106/119 203/111/169 204/112/170
f 204/112/170 164/72/86 197/106/119
f 164/72/86 204/112/170 205/113/125
f 205/113/125 159/68/145 164/72/86
f 159/68/145 205/113/125 206/114/171
f 206/114/171 160/65/79 159/68/145
f 160/65/79 206/114/171 207/115/127
f 207/115/127 161/69/146 160/65/79
f 161/69/146 207/115/127 208/116/128
f 208/116/128 155/64/142 161/69/146
f 155/64/142 208/116/128 209/117/172
f 209/117/172 151/60/139 155/64/142
f 151/60/139 209/117/172 210/118/130
f 210/118/130 152/57/71 151/60/139
f 152/57/71 210/118/130 211/119/131
f 211/119/131 153/61/75 152/57/71
f 153/61/75 211/119/131 212/120/173
f 212/120/173 196/103/116 153/61/75
f 216/121/133 213/122/135 214/123/174
f 214/123/174 215/124/175 216/121/133
s 0
f 220/125/138 217/126/138 218/127/138
f 218/127/138 219/128/138 220/125/138
s 1
f 222/129/176 219/128/176 218/127/176
s 0
f 218/127/138 221/130/138 222/129/138
f 213/122/138 222/129/138 221/130/138
f 221/130/138 214/123/138 213/122/138
