# Blender 5.1.2
# www.blender.org
mtllib ruddervator_right.mtl
o defaultMaterial.008
v -0.028457 0.130689 0.074460
v -0.028457 0.129565 0.076407
v -0.028274 0.130476 0.076830
v -0.028274 0.131511 0.075036
v -0.028274 0.131511 0.075036
v -0.028274 0.130476 0.076830
v -0.027777 0.131228 0.076989
v -0.027777 0.132024 0.075609
v -0.027777 0.132024 0.075609
v -0.027777 0.131228 0.076989
v -0.027097 0.131623 0.076841
v -0.027097 0.132094 0.076025
v -0.028457 -0.130265 -0.072989
v -0.028457 -0.128607 -0.075862
v -0.001374 0.128571 0.078413
v -0.001359 -0.131939 -0.070085
v -0.000641 -0.131508 -0.070147
v -0.000646 0.128589 0.078109
v -0.000646 0.128589 0.078109
v -0.000641 -0.131508 -0.070147
v -0.000337 -0.130418 -0.070420
v -0.000337 0.128852 0.077353
v -0.000337 0.129399 0.077513
v -0.000641 0.129420 0.078333
v -0.000641 0.129420 0.078333
v -0.001364 0.129467 0.078641
v -0.001359 -0.131939 -0.070085
v -0.001359 -0.126928 -0.078763
v -0.000641 -0.126767 -0.078359
v -0.000641 -0.131508 -0.070147
v -0.000641 -0.131508 -0.070147
v -0.000641 -0.126767 -0.078359
v -0.000337 -0.126458 -0.077279
v -0.000337 0.129805 0.077421
v -0.000635 0.130237 0.078118
v -0.000635 0.130237 0.078118
v -0.001350 0.130444 0.078374
v -0.000337 0.130224 0.077016
v -0.000631 0.130868 0.077491
v -0.000631 0.130868 0.077491
v -0.001340 0.131148 0.077661
v -0.000337 0.131546 0.074726
v -0.000631 0.132278 0.075046
v -0.000631 0.130868 0.077491
v -0.000631 0.132278 0.075046
v -0.001340 0.132568 0.075204
v -0.001340 0.131148 0.077661
v -0.000337 0.131687 0.074161
v -0.000635 0.132507 0.074185
v -0.000635 0.132507 0.074185
v -0.001350 0.132832 0.074238
v -0.000337 0.131564 0.073764
v -0.000641 0.132285 0.073372
v -0.000641 0.132285 0.073372
v -0.001364 0.132575 0.073257
v -0.000337 0.131152 0.073369
v -0.000646 0.131674 0.072763
v -0.000646 0.131674 0.072763
v -0.001374 0.131929 0.072596
v -0.000641 -0.126767 -0.078359
v -0.000641 -0.126767 -0.078359
v -0.001359 -0.126928 -0.078763
v -0.028457 0.129565 0.076407
v -0.028457 -0.130265 -0.072989
v -0.028274 0.130476 0.076830
v -0.027777 0.131228 0.076989
v -0.027777 0.131228 0.076989
v -0.027097 0.131623 0.076841
v -0.027777 0.132024 0.075609
v -0.028274 0.131511 0.075036
v -0.028457 0.130689 0.074460
v -0.028457 -0.128607 -0.075862
v -0.028457 -0.130265 -0.072989
v -0.028457 -0.128607 -0.075862
v -0.012306 -0.084458 -0.059894
v -0.010744 -0.083562 -0.059517
v -0.009858 -0.084332 -0.062827
v -0.010883 -0.084845 -0.063031
v -0.012635 -0.085865 -0.055624
v -0.010800 -0.084794 -0.055172
v -0.009181 -0.085260 -0.064284
v -0.009850 -0.085518 -0.064372
v -0.010894 -0.090675 -0.066396
v -0.009864 -0.091104 -0.066737
v -0.010754 -0.094350 -0.065745
v -0.012311 -0.093579 -0.065159
v -0.009864 -0.089180 -0.066486
v -0.009188 -0.089382 -0.066663
v -0.010805 -0.097498 -0.062506
v -0.012638 -0.096572 -0.061806
v -0.011639 -0.086567 -0.063956
v -0.011368 -0.085579 -0.063411
v -0.010085 -0.085889 -0.064565
v -0.010219 -0.086486 -0.064898
v -0.013645 -0.087318 -0.061424
v -0.013165 -0.085737 -0.060554
v -0.014238 -0.089255 -0.057437
v -0.013664 -0.087393 -0.056413
v -0.012635 -0.085865 -0.055624
v -0.013648 -0.090825 -0.063448
v -0.014238 -0.093308 -0.059777
v -0.011650 -0.089011 -0.065366
v -0.010235 -0.088238 -0.065908
v -0.013169 -0.092369 -0.064383
v -0.013664 -0.095126 -0.060878
v -0.011380 -0.089979 -0.065950
v -0.012638 -0.096572 -0.061806
v -0.010105 -0.088826 -0.066260
v -0.012573 -0.098156 -0.059598
v -0.010644 -0.099123 -0.060331
v -0.010644 -0.085868 -0.052678
v -0.012573 -0.086987 -0.053150
v -0.013647 -0.096646 -0.058629
v -0.013647 -0.088581 -0.053973
v -0.014245 -0.094750 -0.057480
v -0.014245 -0.090525 -0.055041
v -0.014245 -0.094750 -0.057480
v -0.014245 -0.090525 -0.055041
v -0.013647 -0.088581 -0.053973
v -0.012573 -0.086987 -0.053150
v -0.012573 -0.086987 -0.053150
v -0.010644 -0.085868 -0.052678
v -0.010644 -0.099123 -0.060331
v -0.012573 -0.098156 -0.059598
v -0.012573 -0.098156 -0.059598
v -0.013647 -0.096646 -0.058629
v -0.000465 -0.085547 -0.053235
v -0.000465 -0.098802 -0.060888
v -0.000465 -0.098802 -0.060888
v -0.000465 -0.097170 -0.063074
v -0.000464 -0.094024 -0.066310
v -0.000464 -0.090812 -0.067241
v -0.000462 -0.089116 -0.067122
v -0.000462 -0.084995 -0.064743
v -0.000464 -0.084042 -0.063333
v -0.000464 -0.083237 -0.060081
v -0.000465 -0.084466 -0.055739
v -0.000465 -0.085547 -0.053235
v -0.000464 -0.090812 -0.067241
v -0.000462 -0.089116 -0.067122
v -0.000462 -0.084995 -0.064743
v -0.000464 -0.084042 -0.063333
v -0.000465 -0.085547 -0.053235
v -0.000465 -0.098802 -0.060888
v -0.000465 -0.097170 -0.063074
v -0.000465 -0.084466 -0.055739
v -0.000464 -0.094024 -0.066310
v -0.000464 -0.083237 -0.060081
v -0.012306 0.041356 0.012745
v -0.010744 0.042252 0.013122
v -0.009858 0.041482 0.009811
v -0.010883 0.040969 0.009608
v -0.012635 0.039949 0.017015
v -0.010800 0.041020 0.017467
v -0.009181 0.040554 0.008355
v -0.009850 0.040296 0.008267
v -0.010894 0.035139 0.006243
v -0.009864 0.034710 0.005902
v -0.010754 0.031464 0.006894
v -0.012311 0.032235 0.007480
v -0.009864 0.036634 0.006153
v -0.009188 0.036432 0.005976
v -0.010805 0.028316 0.010133
v -0.012638 0.029243 0.010833
v -0.011639 0.039246 0.008682
v -0.011368 0.040235 0.009228
v -0.010085 0.039925 0.008074
v -0.010219 0.039328 0.007741
v -0.013645 0.038496 0.011215
v -0.013165 0.040078 0.012085
v -0.014238 0.036558 0.015202
v -0.013664 0.038422 0.016226
v -0.012635 0.039949 0.017015
v -0.013648 0.034989 0.009191
v -0.014238 0.032507 0.012862
v -0.011650 0.036803 0.007273
v -0.010235 0.037576 0.006731
v -0.013169 0.033446 0.008256
v -0.013664 0.030688 0.011761
v -0.011380 0.035836 0.006689
v -0.012638 0.029243 0.010833
v -0.010105 0.036988 0.006379
v -0.012573 0.027658 0.013041
v -0.010644 0.026691 0.012308
v -0.010644 0.039946 0.019960
v -0.012573 0.038826 0.019489
v -0.013647 0.029169 0.014010
v -0.013647 0.037233 0.018666
v -0.014245 0.031065 0.015159
v -0.014245 0.035290 0.017598
v -0.014245 0.031065 0.015159
v -0.014245 0.035290 0.017598
v -0.013647 0.037233 0.018666
v -0.012573 0.038826 0.019489
v -0.012573 0.038826 0.019489
v -0.010644 0.039946 0.019960
v -0.010644 0.026691 0.012308
v -0.012573 0.027658 0.013041
v -0.012573 0.027658 0.013041
v -0.013647 0.029169 0.014010
v -0.000465 0.040267 0.019404
v -0.000465 0.027011 0.011751
v -0.000465 0.027011 0.011751
v -0.000465 0.028644 0.009565
v -0.000464 0.031790 0.006329
v -0.000464 0.035003 0.005398
v -0.000462 0.036698 0.005517
v -0.000462 0.040819 0.007896
v -0.000464 0.041772 0.009306
v -0.000464 0.042577 0.012557
v -0.000465 0.041348 0.016900
v -0.000465 0.040267 0.019404
v -0.000464 0.035003 0.005398
v -0.000462 0.036698 0.005517
v -0.000462 0.040819 0.007896
v -0.000464 0.041772 0.009306
v -0.000465 0.040267 0.019404
v -0.000465 0.027011 0.011751
v -0.000465 0.028644 0.009565
v -0.000465 0.041348 0.016900
v -0.000464 0.031790 0.006329
v -0.000464 0.042577 0.012557
vn -0.9839 0.1550 0.0895
vn -1.0000 -0.0080 -0.0048
vn -1.0000 -0.0081 -0.0047
vn -0.9839 0.1547 0.0894
vn -0.8269 0.4869 0.2815
vn -0.8269 0.4870 0.2813
vn -0.0320 0.9237 0.3817
vn -0.0636 0.9850 0.1601
vn -0.0736 0.6529 0.7539
vn -0.0306 0.7867 0.6165
vn -1.0000 -0.0000 -0.0000
vn 0.3512 -0.4652 0.8126
vn -0.0691 -0.4959 0.8656
vn -0.0804 -0.4952 0.8650
vn 0.3493 -0.4640 0.8140
vn 0.9995 -0.0184 0.0275
vn 0.9310 -0.1844 0.3152
vn 0.9313 -0.1804 0.3165
vn 0.9985 -0.0161 0.0526
vn 0.9963 -0.0034 0.0864
vn 0.9374 -0.0134 0.3481
vn 0.3934 -0.0045 0.9194
vn -0.0374 -0.1412 0.9893
vn 0.4300 -0.7819 -0.4514
vn 0.0308 -0.8645 -0.5016
vn 0.0312 -0.8667 -0.4979
vn 0.9360 -0.3049 -0.1760
vn 0.9985 0.0374 -0.0402
vn 0.9905 0.0684 0.1194
vn 0.9400 0.1720 0.2946
vn 0.4143 0.4463 0.7932
vn -0.0094 0.3339 0.9426
vn 0.9603 0.2333 0.1531
vn 0.9382 0.2907 0.1876
vn 0.4213 0.7545 0.5032
vn 0.0288 0.8106 0.5849
vn 0.9603 0.2487 0.1264
vn 0.9382 0.3078 0.1579
vn 0.0309 0.8091 0.5868
vn 0.4217 0.7519 0.5068
vn 0.4219 0.8139 0.3994
vn 0.0301 0.9125 0.4079
vn 0.9905 0.1375 -0.0015
vn 0.9400 0.3412 0.0017
vn 0.4141 0.9102 -0.0101
vn -0.0099 0.9832 -0.1821
vn 0.9963 0.0720 -0.0480
vn 0.9373 0.2948 -0.1857
vn 0.3933 0.7939 -0.4637
vn -0.0389 0.7871 -0.6156
vn 0.9994 0.0140 -0.0307
vn 0.9309 0.1808 -0.3174
vn 0.3511 0.4712 -0.8092
vn -0.0692 0.5024 -0.8619
vn 0.9311 0.1840 -0.3148
vn 0.3496 0.4729 -0.8088
vn -0.0804 0.5014 -0.8615
vn -0.1003 -0.4936 0.8639
vn -0.1047 -0.4941 0.8631
vn -0.0795 -0.1950 0.9776
vn -0.0626 0.0805 0.9948
vn -0.0230 0.7877 0.6157
vn -0.0616 0.6475 0.7596
vn -0.0783 0.7491 -0.6578
vn -0.0615 0.9012 -0.4290
vn -0.1000 0.5015 -0.8594
vn -0.1047 0.5004 -0.8594
vn 0.0001 -0.8660 -0.5000
vn -0.4924 0.7743 -0.3975
vn -0.6639 0.7478 0.0063
vn -0.1156 0.9891 0.0911
vn -0.0989 0.9437 -0.3158
vn -0.1166 0.9402 0.3200
vn -0.7003 0.6757 0.2302
vn -0.0678 0.6212 -0.7807
vn -0.2039 0.6099 -0.7658
vn -0.6640 -0.3799 -0.6440
vn -0.4962 -0.0417 -0.8672
vn -0.0902 -0.1925 -0.9772
vn -0.1169 -0.5769 -0.8084
vn -0.0747 0.3671 -0.9272
vn -0.2024 0.3559 -0.9123
vn -0.7006 -0.5372 -0.4697
vn -0.1163 -0.7476 -0.6539
vn -0.4586 0.4674 -0.7558
vn -0.7254 0.3830 -0.5720
vn -0.6699 0.5660 -0.4806
vn -0.3441 0.5501 -0.7609
vn -0.8740 0.4735 -0.1090
vn -0.9471 0.2181 -0.2353
vn -0.9185 0.3822 0.1013
vn -0.9932 0.1114 -0.0343
vn -0.7020 0.6741 0.2296
vn -0.9476 0.0937 -0.3055
vn -0.9932 -0.0259 -0.1131
vn -0.7268 0.3026 -0.6166
vn -0.4595 0.4243 -0.7803
vn -0.8758 -0.1403 -0.4618
vn -0.9186 -0.2788 -0.2799
vn -0.6722 0.1339 -0.7282
vn -0.7022 -0.5360 -0.4686
vn -0.3446 0.3812 -0.8579
vn 0.0781 -0.4985 0.8634
vn 0.0782 -0.4985 0.8634
vn 0.0650 -0.4988 0.8643
vn 0.0649 -0.4991 0.8641
vn 0.0777 -0.4985 0.8634
vn 0.0780 -0.4985 0.8634
vn -0.9967 -0.0676 -0.0456
vn -0.9967 0.0732 0.0359
vn -0.9212 0.3471 0.1758
vn -0.7010 0.6424 0.3098
vn -0.6999 0.6432 0.3105
vn -0.1149 0.9103 0.3978
vn -0.1143 -0.7983 -0.5914
vn -0.7000 -0.5903 -0.4020
vn -0.7011 -0.5892 -0.4017
vn -0.9213 -0.3256 -0.2128
vn 0.0630 -0.4990 0.8643
vn -0.0126 -0.7485 -0.6630
vn -0.0074 -0.8013 -0.5983
vn -0.0288 -0.5460 -0.8373
vn -0.0481 -0.1678 -0.9847
vn -0.0604 0.3915 -0.9182
vn -0.0602 0.5993 -0.7983
vn -0.0481 0.9362 -0.3481
vn -0.0288 0.9982 0.0535
vn -0.0125 0.9483 0.3173
vn -0.0073 0.9181 0.3964
vn 1.0000 -0.0001 0.0001
vn 1.0000 -0.0001 0.0002
vn 1.0000 -0.0002 0.0005
vn 1.0000 -0.0003 0.0004
vn 1.0000 -0.0000 -0.0000
vn 1.0000 -0.0001 0.0003
vn 1.0000 0.0001 -0.0002
vn -0.4924 0.7743 -0.3976
vn -0.1155 0.9891 0.0911
vn -0.0990 0.9436 -0.3158
vn -0.1166 0.9402 0.3201
vn -0.2039 0.6098 -0.7658
vn -0.4962 -0.0418 -0.8672
vn -0.0902 -0.1924 -0.9772
vn -0.1169 -0.5768 -0.8084
vn -0.0747 0.3672 -0.9271
vn -0.2024 0.3560 -0.9123
vn -0.1163 -0.7475 -0.6540
vn -0.4587 0.4672 -0.7558
vn -0.6699 0.5660 -0.4805
vn -0.3441 0.5500 -0.7609
vn -0.9185 0.3821 0.1012
vn -0.9932 0.1114 -0.0342
vn -0.7020 0.6741 0.2297
vn 0.0784 -0.4984 0.8634
vn 0.0783 -0.4985 0.8634
vn 0.0649 -0.4988 0.8643
vn 0.0778 -0.4985 0.8634
vn 0.0779 -0.4985 0.8634
vn 0.0783 -0.4984 0.8634
vn -0.7010 0.6424 0.3097
vn -0.1149 0.9103 0.3976
vn -0.1144 -0.7983 -0.5913
vn -0.7000 -0.5903 -0.4019
vn -0.7011 -0.5892 -0.4016
vn -0.9213 -0.3256 -0.2127
vn -0.0126 -0.7485 -0.6631
vn -0.0075 -0.8012 -0.5984
vn -0.0481 -0.1677 -0.9847
vn -0.0287 0.9982 0.0535
vn -0.0125 0.9482 0.3173
vn -0.0073 0.9181 0.3962
vn 1.0000 -0.0003 0.0005
vt 0.441429 0.013150
vt 0.441363 0.014108
vt 0.438192 0.014369
vt 0.438126 0.013361
vt 0.440945 0.012476
vt 0.437945 0.011991
vt 0.442818 0.011886
vt 0.441999 0.012440
vt 0.441848 0.010874
vt 0.442729 0.010958
vt 0.439816 0.311262
vt 0.437684 0.309631
vt 0.402112 0.014529
vt 0.403054 0.014545
vt 0.403035 0.311491
vt 0.402118 0.311000
vt 0.401320 0.014678
vt 0.401349 0.310197
vt 0.401188 0.014129
vt 0.401882 0.013707
vt 0.402119 0.013577
vt 0.403041 0.013525
vt 0.402139 0.311696
vt 0.404490 0.321276
vt 0.403515 0.320955
vt 0.392733 0.310959
vt 0.393509 0.310163
vt 0.400909 0.013825
vt 0.401297 0.013112
vt 0.402111 0.012647
vt 0.403023 0.012410
vt 0.400356 0.013664
vt 0.400448 0.012878
vt 0.402106 0.011928
vt 0.403011 0.011607
vt 0.397739 0.013653
vt 0.397654 0.012866
vt 0.475369 0.006872
vt 0.476289 0.006980
vt 0.476556 0.009753
vt 0.475638 0.009661
vt 0.397185 0.013809
vt 0.396802 0.013093
vt 0.476645 0.010731
vt 0.475731 0.010759
vt 0.396903 0.014110
vt 0.396212 0.013683
vt 0.476824 0.011940
vt 0.475910 0.011884
vt 0.396766 0.014658
vt 0.395988 0.014506
vt 0.476915 0.012921
vt 0.475985 0.012630
vt 0.476921 0.307509
vt 0.476004 0.307693
vt 0.435893 0.011068
vt 0.326175 0.255108
vt 0.328283 0.257802
vt 0.325527 0.258569
vt 0.324339 0.255755
vt 0.325858 0.263812
vt 0.328300 0.263866
vt 0.323443 0.253940
vt 0.324330 0.253623
vt 0.328287 0.244493
vt 0.326182 0.247130
vt 0.324348 0.246487
vt 0.325540 0.243743
vt 0.323451 0.248299
vt 0.324349 0.248611
vt 0.328351 0.238533
vt 0.325914 0.238565
vt 0.324820 0.252317
vt 0.326712 0.252792
vt 0.326518 0.254130
vt 0.324642 0.253127
vt 0.329718 0.255660
vt 0.329763 0.253522
vt 0.334951 0.256415
vt 0.335004 0.253896
vt 0.334855 0.258450
vt 0.329763 0.248723
vt 0.335004 0.248350
vt 0.326719 0.249448
vt 0.324842 0.249921
vt 0.329719 0.246584
vt 0.334951 0.245832
vt 0.326528 0.248109
vt 0.334855 0.243798
vt 0.324668 0.249108
vt 0.709097 0.438741
vt 0.727550 0.438741
vt 0.729274 0.441832
vt 0.707374 0.441832
vt 0.711661 0.437021
vt 0.724986 0.437021
vt 0.714833 0.436061
vt 0.721814 0.436061
vt 0.338215 0.248231
vt 0.338215 0.254013
vt 0.338160 0.256641
vt 0.338060 0.258765
vt 0.328369 0.267072
vt 0.325803 0.267014
vt 0.325879 0.235363
vt 0.328446 0.235329
vt 0.338060 0.243480
vt 0.338160 0.245604
vt 0.729274 0.458145
vt 0.707374 0.458145
vt 0.312164 0.238566
vt 0.312346 0.235360
vt 0.311871 0.243743
vt 0.311870 0.246489
vt 0.311869 0.248300
vt 0.311869 0.253939
vt 0.311870 0.255754
vt 0.311871 0.258507
vt 0.312117 0.263687
vt 0.312270 0.266894
vt 0.288752 0.246872
vt 0.288752 0.256137
vt 0.287870 0.254326
vt 0.287870 0.248687
vt 0.296798 0.242808
vt 0.300008 0.242434
vt 0.300008 0.260574
vt 0.296798 0.260194
vt 0.291612 0.258883
vt 0.291612 0.244119
s 1
usemtl MQ9_Gray
f 4/1/1 1/2/2 2/3/3
f 2/3/3 3/4/4 4/1/1
f 8/5/5 5/1/5 6/4/5
s 0
f 6/4/6 7/6/6 8/5/6
s 1
f 12/7/7 9/8/8 10/9/9
f 10/9/9 11/10/10 12/7/7
f 14/11/11 13/12/11 2/3/3
f 2/3/3 1/2/2 14/11/11
f 18/13/12 15/14/13 16/15/14
f 16/15/14 17/16/15 18/13/12
f 22/17/16 19/13/17 20/16/18
f 20/16/18 21/18/19 22/17/16
f 19/13/17 22/17/16 23/19/20
f 23/19/20 24/20/21 19/13/17
f 15/14/13 18/13/12 25/21/22
f 25/21/22 26/22/23 15/14/13
f 30/23/24 27/15/25 28/24/26
f 28/24/26 29/25/24 30/23/24
f 21/18/19 31/16/27 32/26/27
f 32/26/27 33/27/28 21/18/19
f 24/20/21 23/19/20 34/28/29
f 34/28/29 35/29/30 24/20/21
f 26/22/23 25/21/22 36/30/31
f 36/30/31 37/31/32 26/22/23
f 35/29/30 34/28/29 38/32/33
f 38/32/33 39/33/34 35/29/30
f 37/31/32 36/30/31 40/34/35
f 40/34/35 41/35/36 37/31/32
f 39/33/34 38/32/33 42/36/37
f 42/36/37 43/37/38 39/33/34
f 47/38/39 44/39/40 45/40/41
f 45/40/41 46/41/42 47/38/39
f 43/37/38 42/36/37 48/42/43
f 48/42/43 49/43/44 43/37/38
f 46/41/42 45/40/41 50/44/45
f 50/44/45 51/45/46 46/41/42
f 49/43/44 48/42/43 52/46/47
f 52/46/47 53/47/48 49/43/44
f 51/45/46 50/44/45 54/48/49
f 54/48/49 55/49/50 51/45/46
f 53/47/48 52/46/47 56/50/51
f 56/50/51 57/51/52 53/47/48
f 55/49/50 54/48/49 58/52/53
f 58/52/53 59/53/54 55/49/50
f 57/51/52 56/50/51 33/27/28
f 33/27/28 60/26/55 57/51/52
f 59/53/54 58/52/53 61/54/56
f 61/54/56 62/55/57 59/53/54
f 15/14/13 63/3/58 64/12/59
f 64/12/59 16/15/14 15/14/13
f 65/4/60 63/3/58 15/14/13
f 15/14/13 26/22/23 65/4/60
f 66/6/61 65/4/60 26/22/23
f 26/22/23 37/31/32 66/6/61
f 68/56/62 67/6/63 37/31/32
f 37/31/32 41/35/36 68/56/62
f 47/38/39 46/41/42 12/7/7
f 12/7/7 11/10/10 47/38/39
f 9/8/8 12/7/7 46/41/42
f 46/41/42 51/45/46 9/8/8
f 70/1/64 69/8/65 51/45/46
f 51/45/46 55/49/50 70/1/64
f 71/2/66 70/1/64 55/49/50
f 55/49/50 59/53/54 71/2/66
f 62/55/57 72/11/67 71/2/66
f 71/2/66 59/53/54 62/55/57
f 27/15/25 73/12/68 74/11/68
f 74/11/68 28/24/26 27/15/25
f 22/17/16 21/18/19 33/27/28
f 33/27/28 56/50/51 22/17/16
f 23/19/20 22/17/16 56/50/51
f 56/50/51 52/46/47 23/19/20
f 34/28/29 23/19/20 52/46/47
f 52/46/47 48/42/43 34/28/29
f 38/32/33 34/28/29 48/42/43
f 48/42/43 42/36/37 38/32/33
f 78/57/69 75/58/70 76/59/71
f 76/59/71 77/60/72 78/57/69
f 80/61/73 76/59/71 75/58/70
f 75/58/70 79/62/74 80/61/73
f 77/60/72 81/63/75 82/64/76
f 82/64/76 78/57/69 77/60/72
f 86/65/77 83/66/78 84/67/79
f 84/67/79 85/68/80 86/65/77
f 88/69/81 84/67/79 83/66/78
f 83/66/78 87/70/82 88/69/81
f 90/71/83 86/65/77 85/68/80
f 85/68/80 89/72/84 90/71/83
f 94/73/85 91/74/86 92/75/87
f 92/75/87 93/76/88 94/73/85
f 96/77/89 92/75/87 91/74/86
f 91/74/86 95/78/90 96/77/89
f 96/77/89 75/58/70 78/57/69
f 78/57/69 92/75/87 96/77/89
f 82/64/76 93/76/88 92/75/87
f 92/75/87 78/57/69 82/64/76
f 98/79/91 96/77/89 95/78/90
f 95/78/90 97/80/92 98/79/91
f 99/81/93 75/58/70 96/77/89
f 96/77/89 98/79/91 99/81/93
f 97/80/92 95/78/90 100/82/94
f 100/82/94 101/83/95 97/80/92
f 102/84/96 100/82/94 95/78/90
f 95/78/90 91/74/86 102/84/96
f 102/84/96 91/74/86 94/73/85
f 94/73/85 103/85/97 102/84/96
f 101/83/95 100/82/94 104/86/98
f 104/86/98 105/87/99 101/83/95
f 106/88/100 104/86/98 100/82/94
f 100/82/94 102/84/96 106/88/100
f 106/88/100 83/66/78 86/65/77
f 86/65/77 104/86/98 106/88/100
f 105/87/99 104/86/98 86/65/77
f 86/65/77 107/89/101 105/87/99
f 106/88/100 102/84/96 103/85/97
f 103/85/97 108/90/102 106/88/100
f 83/66/78 106/88/100 108/90/102
f 108/90/102 87/70/82 83/66/78
f 93/76/88 108/90/102 103/85/97
f 103/85/97 94/73/85 93/76/88
f 82/64/76 87/70/82 108/90/102
f 108/90/102 93/76/88 82/64/76
f 81/63/75 88/69/81 87/70/82
f 87/70/82 82/64/76 81/63/75
f 112/91/103 109/92/104 110/93/105
f 110/93/105 111/94/106 112/91/103
s 0
f 114/95/104 113/96/104 109/92/104
f 109/92/104 112/91/104 114/95/104
s 1
f 116/97/107 115/98/107 113/96/108
s 0
f 113/96/108 114/95/108 116/97/107
s 1
f 101/83/95 117/99/109 118/100/110
f 118/100/110 97/80/92 101/83/95
f 97/80/92 118/100/110 119/101/111
f 119/101/111 98/79/91 97/80/92
f 98/79/91 119/101/111 120/102/112
f 120/102/112 99/81/93 98/79/91
f 79/62/74 121/103/113 122/104/114
f 122/104/114 80/61/73 79/62/74
f 89/72/84 123/105/115 124/106/116
f 124/106/116 90/71/83 89/72/84
f 107/89/101 125/107/117 126/108/118
f 126/108/118 105/87/99 107/89/101
f 105/87/99 126/108/118 117/99/109
f 117/99/109 101/83/95 105/87/99
f 128/109/119 127/110/119 111/94/106
f 111/94/106 110/93/105 128/109/119
f 130/111/120 129/112/121 123/105/115
f 123/105/115 89/72/84 130/111/120
f 131/113/122 130/111/120 89/72/84
f 89/72/84 85/68/80 131/113/122
f 132/114/123 131/113/122 85/68/80
f 85/68/80 84/67/79 132/114/123
f 133/115/124 132/114/123 84/67/79
f 84/67/79 88/69/81 133/115/124
f 134/116/125 133/115/124 88/69/81
f 88/69/81 81/63/75 134/116/125
f 135/117/126 134/116/125 81/63/75
f 81/63/75 77/60/72 135/117/126
f 136/118/127 135/117/126 77/60/72
f 77/60/72 76/59/71 136/118/127
f 137/119/128 136/118/127 76/59/71
f 76/59/71 80/61/73 137/119/128
f 138/120/129 137/119/128 80/61/73
f 80/61/73 122/104/114 138/120/129
f 142/121/130 139/122/131 140/123/132
f 140/123/132 141/124/133 142/121/130
s 0
f 146/125/134 143/126/134 144/127/134
f 144/127/134 145/128/134 146/125/134
f 146/125/135 145/128/135 147/129/135
s 1
f 147/129/136 148/130/136 146/125/136
s 0
f 148/130/134 147/129/134 139/122/134
f 139/122/134 142/121/134 148/130/134
s 1
f 152/57/137 149/58/70 150/59/138
f 150/59/138 151/60/139 152/57/137
f 154/61/140 150/59/138 149/58/70
f 149/58/70 153/62/74 154/61/140
f 151/60/139 155/63/75 156/64/141
f 156/64/141 152/57/137 151/60/139
f 160/65/77 157/66/142 158/67/143
f 158/67/143 159/68/144 160/65/77
f 162/69/145 158/67/143 157/66/142
f 157/66/142 161/70/146 162/69/145
f 164/71/83 160/65/77 159/68/144
f 159/68/144 163/72/147 164/71/83
f 168/73/148 165/74/86 166/75/149
f 166/75/149 167/76/150 168/73/148
f 170/77/89 166/75/149 165/74/86
f 165/74/86 169/78/90 170/77/89
f 170/77/89 149/58/70 152/57/137
f 152/57/137 166/75/149 170/77/89
f 156/64/141 167/76/150 166/75/149
f 166/75/149 152/57/137 156/64/141
f 172/79/151 170/77/89 169/78/90
f 169/78/90 171/80/152 172/79/151
f 173/81/153 149/58/70 170/77/89
f 170/77/89 172/79/151 173/81/153
f 171/80/152 169/78/90 174/82/94
f 174/82/94 175/83/95 171/80/152
f 176/84/96 174/82/94 169/78/90
f 169/78/90 165/74/86 176/84/96
f 176/84/96 165/74/86 168/73/148
f 168/73/148 177/85/97 176/84/96
f 175/83/95 174/82/94 178/86/98
f 178/86/98 179/87/99 175/83/95
f 180/88/100 178/86/98 174/82/94
f 174/82/94 176/84/96 180/88/100
f 180/88/100 157/66/142 160/65/77
f 160/65/77 178/86/98 180/88/100
f 179/87/99 178/86/98 160/65/77
f 160/65/77 181/89/101 179/87/99
f 180/88/100 176/84/96 177/85/97
f 177/85/97 182/90/102 180/88/100
f 157/66/142 180/88/100 182/90/102
f 182/90/102 161/70/146 157/66/142
f 167/76/150 182/90/102 177/85/97
f 177/85/97 168/73/148 167/76/150
f 156/64/141 161/70/146 182/90/102
f 182/90/102 167/76/150 156/64/141
f 155/63/75 162/69/145 161/70/146
f 161/70/146 156/64/141 155/63/75
f 186/91/154 183/92/155 184/93/156
f 184/93/156 185/94/106 186/91/154
s 0
f 188/95/107 187/96/107 183/92/107
f 183/92/157 186/91/157 188/95/157
s 1
f 190/97/158 189/98/158 187/96/159
s 0
f 187/96/158 188/95/158 190/97/158
s 1
f 175/83/95 191/99/109 192/100/110
f 192/100/110 171/80/152 175/83/95
f 171/80/152 192/100/110 193/101/111
f 193/101/111 172/79/151 171/80/152
f 172/79/151 193/101/111 194/102/160
f 194/102/160 173/81/153 172/79/151
f 153/62/74 195/103/113 196/104/161
f 196/104/161 154/61/140 153/62/74
f 163/72/147 197/105/162 198/106/163
f 198/106/163 164/71/83 163/72/147
f 181/89/101 199/107/164 200/108/165
f 200/108/165 179/87/99 181/89/101
f 179/87/99 200/108/165 191/99/109
f 191/99/109 175/83/95 179/87/99
f 202/109/119 201/110/119 185/94/106
f 185/94/106 184/93/156 202/109/119
f 204/111/166 203/112/167 197/105/162
f 197/105/162 163/72/147 204/111/166
f 205/113/122 204/111/166 163/72/147
f 163/72/147 159/68/144 205/113/122
f 206/114/168 205/113/122 159/68/144
f 159/68/144 158/67/143 206/114/168
f 207/115/124 206/114/168 158/67/143
f 158/67/143 162/69/145 207/115/124
f 208/116/125 207/115/124 162/69/145
f 162/69/145 155/63/75 208/116/125
f 209/117/126 208/116/125 155/63/75
f 155/63/75 151/60/139 209/117/126
f 210/118/169 209/117/126 151/60/139
f 151/60/139 150/59/138 210/118/169
f 211/119/170 210/118/169 150/59/138
f 150/59/138 154/61/140 211/119/170
f 212/120/171 211/119/170 154/61/140
f 154/61/140 196/104/161 212/120/171
f 216/121/130 213/122/131 214/123/172
f 214/123/172 215/124/172 216/121/130
s 0
f 220/125/134 217/126/134 218/127/134
f 218/127/134 219/128/134 220/125/134
s 1
f 220/125/136 219/128/136 221/129/136
s 0
f 221/129/134 222/130/134 220/125/134
f 222/130/134 221/129/134 213/122/134
f 213/122/134 216/121/134 222/130/134
