# Blender 5.1.2
# www.blender.org
mtllib wheel.mtl
o WheelExp
v 0.000000 0.010000 0.035000
v 0.000000 -0.010000 0.035000
v 0.009059 0.010000 0.033807
v 0.009059 -0.010000 0.033807
v 0.017500 0.010000 0.030311
v 0.017500 -0.010000 0.030311
v 0.024749 0.010000 0.024749
v 0.024749 -0.010000 0.024749
v 0.030311 0.010000 0.017500
v 0.030311 -0.010000 0.017500
v 0.033807 0.010000 0.009059
v 0.033807 -0.010000 0.009059
v 0.035000 0.010000 0.000000
v 0.035000 -0.010000 0.000000
v 0.033807 0.010000 -0.009059
v 0.033807 -0.010000 -0.009059
v 0.030311 0.010000 -0.017500
v 0.030311 -0.010000 -0.017500
v 0.024749 0.010000 -0.024749
v 0.024749 -0.010000 -0.024749
v 0.017500 0.010000 -0.030311
v 0.017500 -0.010000 -0.030311
v 0.009059 0.010000 -0.033807
v 0.009059 -0.010000 -0.033807
v 0.000000 0.010000 -0.035000
v 0.000000 -0.010000 -0.035000
v -0.009059 0.010000 -0.033807
v -0.009059 -0.010000 -0.033807
v -0.017500 0.010000 -0.030311
v -0.017500 -0.010000 -0.030311
v -0.024749 0.010000 -0.024749
v -0.024749 -0.010000 -0.024749
v -0.030311 0.010000 -0.017500
v -0.030311 -0.010000 -0.017500
v -0.033807 0.010000 -0.009059
v -0.033807 -0.010000 -0.009059
v -0.035000 0.010000 0.000000
v -0.035000 -0.010000 0.000000
v -0.033807 0.010000 0.009059
v -0.033807 -0.010000 0.009059
v -0.030311 0.010000 0.017500
v -0.030311 -0.010000 0.017500
v -0.024749 0.010000 0.024749
v -0.024749 -0.010000 0.024749
v -0.017500 0.010000 0.030311
v -0.017500 -0.010000 0.030311
v -0.009059 0.010000 0.033807
v -0.009059 -0.010000 0.033807
vn -0.0000 0.6789 0.7342
vn -0.0000 -0.6789 0.7343
vn 0.1900 0.6789 0.7092
vn 0.1900 -0.6789 0.7092
vn 0.3671 0.6789 0.6359
vn 0.3671 -0.6789 0.6359
vn 0.5192 0.6789 0.5192
vn 0.5192 -0.6789 0.5192
vn 0.6359 0.6789 0.3671
vn 0.6359 -0.6789 0.3671
vn 0.7092 0.6789 0.1900
vn 0.7092 -0.6789 0.1900
vn 0.7342 0.6789 -0.0000
vn 0.7343 -0.6789 -0.0000
vn 0.7092 0.6789 -0.1900
vn 0.7092 -0.6789 -0.1900
vn 0.6359 0.6789 -0.3671
vn 0.6359 -0.6789 -0.3671
vn 0.5192 0.6789 -0.5192
vn 0.5192 -0.6789 -0.5192
vn 0.3671 0.6789 -0.6359
vn 0.3671 -0.6789 -0.6359
vn 0.1900 0.6789 -0.7092
vn 0.1900 -0.6789 -0.7092
vn -0.0000 0.6789 -0.7342
vn -0.0000 -0.6789 -0.7343
vn -0.1900 0.6789 -0.7092
vn -0.1900 -0.6789 -0.7092
vn -0.3671 0.6789 -0.6359
vn -0.3671 -0.6789 -0.6359
vn -0.5192 0.6789 -0.5192
vn -0.5192 -0.6789 -0.5192
vn -0.6359 0.6789 -0.3671
vn -0.6359 -0.6789 -0.3671
vn -0.7092 0.6789 -0.1900
vn -0.7092 -0.6789 -0.1900
vn -0.7342 0.6789 -0.0000
vn -0.7343 -0.6789 -0.0000
vn -0.7092 0.6789 0.1900
vn -0.7092 -0.6789 0.1900
vn -0.6359 0.6789 0.3671
vn -0.6359 -0.6789 0.3671
vn -0.5192 0.6789 0.5192
vn -0.5192 -0.6789 0.5192
vn -0.3671 0.6789 0.6359
vn -0.3671 -0.6789 0.6359
vn -0.1900 0.6789 0.7092
vn -0.1900 -0.6789 0.7092
vt 1.000000 1.000000
vt 0.958333 0.500000
vt 1.000000 0.500000
vt 0.958333 1.000000
vt 0.916667 0.500000
vt 0.916667 1.000000
vt 0.875000 0.500000
vt 0.875000 1.000000
vt 0.833333 0.500000
vt 0.791667 1.000000
vt 0.791667 0.500000
vt 0.750000 0.500000
vt 0.750000 1.000000
vt 0.708333 0.500000
vt 0.666667 1.000000
vt 0.666667 0.500000
vt 0.625000 0.500000
vt 0.625000 1.000000
vt 0.583333 0.500000
vt 0.583333 1.000000
vt 0.541666 0.500000
vt 0.541666 1.000000
vt 0.500000 0.500000
vt 0.500000 1.000000
vt 0.458333 0.500000
vt 0.458333 1.000000
vt 0.416666 0.500000
vt 0.416666 1.000000
vt 0.375000 0.500000
vt 0.375000 1.000000
vt 0.333333 0.500000
vt 0.333333 1.000000
vt 0.291667 0.500000
vt 0.291667 1.000000
vt 0.250000 0.500000
vt 0.250000 1.000000
vt 0.208333 0.500000
vt 0.208333 1.000000
vt 0.166666 0.500000
vt 0.166666 1.000000
vt 0.125000 0.500000
vt 0.125000 1.000000
vt 0.083333 0.500000
vt 0.010000 0.250000
vt 0.370000 0.042154
vt 0.370000 0.457846
vt 0.083333 1.000000
vt 0.041666 0.500000
vt 0.041666 1.000000
vt -0.000000 0.500000
vt 0.981822 0.187883
vt 0.580294 0.080294
vt 0.687883 0.481822
vt 0.833333 1.000000
vt 0.708333 1.000000
vt 0.312117 0.481822
vt 0.250000 0.490000
vt 0.187883 0.481822
vt 0.130000 0.457846
vt 0.080294 0.419706
vt 0.042154 0.370000
vt 0.018178 0.312117
vt 0.018178 0.187883
vt 0.042154 0.130000
vt 0.080294 0.080294
vt 0.130000 0.042154
vt 0.187883 0.018178
vt 0.250000 0.010000
vt 0.312117 0.018178
vt 0.419706 0.080294
vt 0.457846 0.130000
vt 0.481822 0.187883
vt 0.490000 0.250000
vt 0.481822 0.312117
vt 0.457846 0.370000
vt 0.419706 0.419706
vt -0.000000 1.000000
vt 0.750000 0.490000
vt 0.812117 0.481822
vt 0.870000 0.457846
vt 0.919706 0.419706
vt 0.957846 0.370000
vt 0.981822 0.312117
vt 0.990000 0.250000
vt 0.957846 0.130000
vt 0.919706 0.080294
vt 0.870000 0.042154
vt 0.812117 0.018178
vt 0.750000 0.010000
vt 0.687883 0.018178
vt 0.630000 0.042154
vt 0.542154 0.130000
vt 0.518178 0.187883
vt 0.510000 0.250000
vt 0.518178 0.312117
vt 0.542154 0.370000
vt 0.580294 0.419706
vt 0.630000 0.457846
s 1
usemtl MQ9_Black
f 2/1/2 3/2/3 1/3/1
f 4/4/4 5/5/5 3/2/3
f 6/6/6 7/7/7 5/5/5
f 8/8/8 9/9/9 7/7/7
f 9/9/9 12/10/12 11/11/11
f 12/10/12 13/12/13 11/11/11
f 14/13/14 15/14/15 13/12/13
f 15/14/15 18/15/18 17/16/17
f 18/15/18 19/17/19 17/16/17
f 20/18/20 21/19/21 19/17/19
f 22/20/22 23/21/23 21/19/21
f 24/22/24 25/23/25 23/21/23
f 26/24/26 27/25/27 25/23/25
f 28/26/28 29/27/29 27/25/27
f 30/28/30 31/29/31 29/27/29
f 32/30/32 33/31/33 31/29/31
f 34/32/34 35/33/35 33/31/33
f 36/34/36 37/35/37 35/33/35
f 38/36/38 39/37/39 37/35/37
f 40/38/40 41/39/41 39/37/39
f 42/40/42 43/41/43 41/39/41
f 44/42/44 45/43/45 43/41/43
f 38/44/38 22/45/22 6/46/6
f 46/47/46 47/48/47 45/43/45
f 48/49/48 1/50/1 47/48/47
f 15/51/15 31/52/31 47/53/47
f 2/1/2 4/4/4 3/2/3
f 4/4/4 6/6/6 5/5/5
f 6/6/6 8/8/8 7/7/7
f 8/8/8 10/54/10 9/9/9
f 9/9/9 10/54/10 12/10/12
f 12/10/12 14/13/14 13/12/13
f 14/13/14 16/55/16 15/14/15
f 15/14/15 16/55/16 18/15/18
f 18/15/18 20/18/20 19/17/19
f 20/18/20 22/20/22 21/19/21
f 22/20/22 24/22/24 23/21/23
f 24/22/24 26/24/26 25/23/25
f 26/24/26 28/26/28 27/25/27
f 28/26/28 30/28/30 29/27/29
f 30/28/30 32/30/32 31/29/31
f 32/30/32 34/32/34 33/31/33
f 34/32/34 36/34/36 35/33/35
f 36/34/36 38/36/38 37/35/37
f 38/36/38 40/38/40 39/37/39
f 40/38/40 42/40/42 41/39/41
f 42/40/42 44/42/44 43/41/43
f 44/42/44 46/47/46 45/43/45
f 6/46/6 4/56/4 2/57/2
f 2/57/2 48/58/48 46/59/46
f 46/59/46 44/60/44 42/61/42
f 42/61/42 40/62/40 38/44/38
f 38/44/38 36/63/36 34/64/34
f 34/64/34 32/65/32 30/66/30
f 30/66/30 28/67/28 26/68/26
f 26/68/26 24/69/24 22/45/22
f 22/45/22 20/70/20 18/71/18
f 18/71/18 16/72/16 14/73/14
f 14/73/14 12/74/12 10/75/10
f 10/75/10 8/76/8 6/46/6
f 6/46/6 2/57/2 46/59/46
f 46/59/46 42/61/42 38/44/38
f 38/44/38 34/64/34 30/66/30
f 30/66/30 26/68/26 22/45/22
f 22/45/22 18/71/18 14/73/14
f 14/73/14 10/75/10 6/46/6
f 6/46/6 46/59/46 38/44/38
f 38/44/38 30/66/30 22/45/22
f 22/45/22 14/73/14 6/46/6
f 46/47/46 48/49/48 47/48/47
f 48/49/48 2/77/2 1/50/1
f 47/53/47 1/78/1 3/79/3
f 3/79/3 5/80/5 7/81/7
f 7/81/7 9/82/9 11/83/11
f 11/83/11 13/84/13 15/51/15
f 15/51/15 17/85/17 19/86/19
f 19/86/19 21/87/21 23/88/23
f 23/88/23 25/89/25 27/90/27
f 27/90/27 29/91/29 31/52/31
f 31/52/31 33/92/33 35/93/35
f 35/93/35 37/94/37 39/95/39
f 39/95/39 41/96/41 43/97/43
f 43/97/43 45/98/45 47/53/47
f 47/53/47 3/79/3 7/81/7
f 7/81/7 11/83/11 15/51/15
f 15/51/15 19/86/19 23/88/23
f 23/88/23 27/90/27 31/52/31
f 31/52/31 35/93/35 39/95/39
f 39/95/39 43/97/43 47/53/47
f 47/53/47 7/81/7 15/51/15
f 15/51/15 23/88/23 31/52/31
f 31/52/31 39/95/39 47/53/47
